<svg xmlns="http://www.w3.org/2000/svg" fill="var(--quaternary-color)" viewBox="93.907 250 1350 472"><g fill-rule="evenodd"><path d="M627.609 633.492C577.617 670.34 505.156 690 442.768 690c-87.477 0-166.229-32.355-225.808-86.167-4.681-4.231-.487-9.998 5.13-6.703 64.297 37.41 143.798 59.916 225.921 59.916 55.385 0 116.312-11.459 172.333-35.238 8.464-3.595 15.541 5.542 7.265 11.684"/><path d="M648.393 609.712c-6.366-8.163-42.241-3.857-58.344-1.947-4.905.599-5.654-3.67-1.235-6.74 28.572-20.11 75.456-14.305 80.924-7.565 5.467 6.778-1.423 53.775-28.273 76.206-4.119 3.445-8.051 1.61-6.216-2.958 6.029-15.054 19.547-48.794 13.144-56.996M591.173 459.061v-19.548c0-2.958 2.247-4.943 4.943-4.943h87.515c2.808 0 5.055 2.023 5.055 4.943v16.739c-.037 2.809-2.397 6.479-6.591 12.283l-45.349 64.747c16.852-.412 34.639 2.097 49.918 10.71 3.445 1.947 4.381 4.793 4.644 7.602v20.858c0 2.846-3.146 6.179-6.441 4.456-26.925-14.117-62.688-15.653-92.458.15-3.034 1.648-6.217-1.647-6.217-4.493v-19.81c0-3.183.038-8.613 3.221-13.444l52.539-75.344h-45.724c-2.808 0-5.055-1.985-5.055-4.906M271.933 581.028h-26.626c-2.546-.188-4.568-2.097-4.755-4.531V439.85c0-2.733 2.284-4.905 5.13-4.905h24.828c2.583.112 4.643 2.097 4.83 4.568v17.863h.487c6.479-17.263 18.649-25.315 35.051-25.315 16.664 0 27.075 8.052 34.564 25.315 6.441-17.263 21.083-25.315 36.774-25.315 11.159 0 23.367 4.606 30.819 14.942 8.426 11.496 6.703 28.198 6.703 42.84l-.037 86.242c0 2.733-2.285 4.943-5.131 4.943h-26.587c-2.659-.188-4.794-2.322-4.794-4.943v-72.424c0-5.767.524-20.147-.749-25.614-1.984-9.175-7.939-11.759-15.653-11.759-6.441 0-13.181 4.307-15.915 11.197-2.734 6.891-2.472 18.424-2.472 26.176v72.424c0 2.733-2.284 4.943-5.13 4.943h-26.588c-2.696-.188-4.793-2.322-4.793-4.943l-.037-72.424c0-15.241 2.509-37.672-16.402-37.672-19.136 0-18.387 21.869-18.387 37.672v72.424c0 2.733-2.284 4.943-5.13 4.943M764.031 432.061c39.507 0 60.889 33.928 60.889 77.067 0 41.68-23.629 74.746-60.889 74.746-38.796 0-59.916-33.928-59.916-76.206 0-42.54 21.382-75.607 59.916-75.607Zm.224 27.899c-19.622 0-20.858 26.737-20.858 43.402 0 16.701-.262 52.351 20.634 52.351 20.633 0 21.607-28.76 21.607-46.285 0-11.534-.487-25.315-3.97-36.249-2.995-9.512-8.95-13.219-17.413-13.219ZM876.149 581.028h-26.513c-2.659-.188-4.794-2.322-4.794-4.943l-.037-136.684c.225-2.509 2.434-4.456 5.13-4.456h24.678c2.322.112 4.232 1.685 4.756 3.82v20.895h.487c7.452-18.686 17.9-27.599 36.286-27.599 11.946 0 23.592 4.307 31.082 16.103 6.965 10.935 6.965 29.321 6.965 42.54v86.017c-.299 2.397-2.509 4.307-5.13 4.307h-26.7c-2.434-.188-4.457-1.985-4.719-4.307V502.5c0-14.941 1.723-36.811-16.664-36.811-6.478 0-12.432 4.344-15.391 10.935-3.744 8.351-4.231 16.664-4.231 25.876v73.585c-.038 2.733-2.359 4.943-5.205 4.943M970.853 570.168c0-6.89 5.88-12.433 13.107-12.433 7.227 0 13.107 5.543 13.107 12.433 0 6.853-5.88 12.47-13.107 12.47-7.227 0-13.107-5.617-13.107-12.47ZM1252.946 581.065c-2.772-.112-4.943-2.247-4.943-4.943V439.476c.149-2.434 2.209-4.344 4.755-4.494h9.774c2.696 0 4.868 1.948 5.093 4.494v19.922c6.965-15.803 19.922-28.16 36.287-28.16h1.984c17.376 0 30.071 12.807 34.789 31.418 7.377-18.387 21.233-31.418 39.507-31.418H1382.214c12.92 0 25.352 8.313 31.793 20.97 6.217 12.096 5.992 28.198 5.992 41.717l-.037 82.197c.037 2.621-2.097 4.756-4.756 4.943h-11.684c-2.546-.112-4.606-1.91-4.943-4.269v-82.871c0-9.774.487-20.147-3.483-29.06-4.044-9.099-11.795-14.791-20.109-15.203-9.287.449-17.825 7.227-23.367 16.364-7.19 11.796-6.928 22.431-6.928 36.212v74.633c-.337 2.247-2.322 4.007-4.756 4.194h-11.608c-2.772-.112-4.981-2.247-4.981-4.943l-.075-87.665c0-8.051-.487-17.525-4.194-24.752-4.306-8.239-12.021-13.631-20.109-14.043-8.389.487-16.852 6.89-21.87 14.342-6.478 9.512-7.714 21.27-7.714 33.366v78.752c0 2.621-2.134 4.756-4.793 4.943h-11.646M1172.733 583.911c-37.785 0-54.711-38.533-54.711-77.067 0-40.518 19.885-75.606 57.931-75.606H1177.976c36.998 0 55.422 37.372 55.422 75.906 0 40.817-20.409 76.767-58.68 76.767H1172.733m2.771-18.686c12.433-.412 22.244-8.126 28.048-20.971 5.205-11.534 6.217-24.753 6.217-37.41 0-13.781-1.498-28.16-7.977-39.956-5.804-10.298-15.765-16.852-26.325-17.226-11.759.412-22.282 8.388-27.562 20.671-4.756 10.635-6.216 24.753-6.216 36.511 0 13.219 1.723 28.498 7.19 39.994 5.317 10.897 15.541 17.975 26.625 18.387M1054.661 564.626c16.964-.525 25.876-14.118 29.546-31.718.749-2.21 2.434-3.895 4.906-3.895l11.196-.037c2.659.112 5.093 2.134 4.869 4.606-5.168 29.995-23.255 50.329-49.019 50.329h-2.022c-37.523 0-53.7-37.672-53.7-75.906 0-37.934 16.402-76.767 53.924-76.767h2.022c26.064 0 44.638 20.071 48.682 50.067 0 2.247-2.097 4.194-4.568 4.456l-11.721-.15c-2.472-.337-4.082-2.434-4.457-4.793-2.808-16.739-12.432-30.07-28.46-30.595-25.502.824-32.766 32.205-32.766 56.359 0 23.255 6.066 57.22 31.568 58.044M521.408 515.757c0 10.373.262 19.023-4.981 28.235-4.231 7.49-10.972 12.096-18.424 12.096-10.223 0-16.214-7.789-16.214-19.286 0-22.693 20.334-26.812 39.619-26.812v5.767Zm26.85 64.896c-1.76 1.573-4.307 1.685-6.291.637-8.838-7.34-10.448-10.748-15.279-17.75-14.604 14.904-24.977 19.36-43.888 19.36-22.431 0-39.845-13.818-39.845-41.492 0-21.607 11.684-36.324 28.386-43.514 14.454-6.366 34.639-7.489 50.067-9.249v-3.446c0-6.328.487-13.818-3.258-19.285-3.22-4.906-9.437-6.928-14.941-6.928-10.149 0-19.174 5.205-21.383 15.99-.449 2.397-2.209 4.756-4.644 4.868l-25.801-2.771c-2.172-.486-4.606-2.247-3.969-5.579 5.916-31.306 34.227-40.743 59.541-40.743 12.957 0 29.883 3.445 40.107 13.256 12.956 12.096 11.721 28.236 11.721 45.798v41.492c0 12.47 5.167 17.938 10.036 24.678 1.685 2.397 2.059 5.28-.113 7.078-5.43 4.531-15.091 12.957-20.409 17.675l-.037-.075M172.36 515.757c0 10.373.262 19.023-4.981 28.235-4.232 7.49-10.935 12.096-18.424 12.096-10.223 0-16.177-7.789-16.177-19.286 0-22.693 20.334-26.812 39.582-26.812v5.767Zm26.849 64.896c-1.76 1.573-4.306 1.685-6.291.637-8.837-7.34-10.41-10.748-15.278-17.75-14.605 14.904-24.94 19.36-43.889 19.36-22.393 0-39.844-13.818-39.844-41.492 0-21.607 11.721-36.324 28.385-43.514 14.455-6.366 34.639-7.489 50.068-9.249v-3.446c0-6.328.486-13.818-3.221-19.285-3.258-4.906-9.474-6.928-14.941-6.928-10.149 0-19.211 5.205-21.42 15.99-.45 2.397-2.21 4.756-4.606 4.868l-25.839-2.771c-2.172-.486-4.569-2.247-3.97-5.579 5.954-31.306 34.227-40.743 59.542-40.743 12.957 0 29.883 3.445 40.106 13.256 12.957 12.096 11.721 28.236 11.721 45.798v41.492c0 12.47 5.168 17.938 10.036 24.678 1.723 2.397 2.097 5.28-.075 7.078-5.43 4.531-15.091 12.957-20.409 17.675l-.075-.075"/></g></svg>