<svg xmlns="http://www.w3.org/2000/svg" fill="var(--quaternary-color)" viewBox="450 0 500 650"><path d="M856.091 303.9c-.649-72.387 59.121-107.138 61.824-108.832-33.634-49.207-85.977-55.948-104.65-56.741-44.521-4.507-86.915 26.207-109.481 26.207-22.567 0-57.463-25.559-94.377-24.837-48.594.72-93.331 28.226-118.349 71.701-50.433 87.491-12.87 217.16 36.229 288.177 24.045 34.715 52.668 73.828 90.303 72.386 36.265-1.442 49.964-23.432 93.728-23.432 43.763 0 56.092 23.432 94.412 22.747 38.97-.757 63.699-35.472 87.564-70.295 27.541-40.303 38.933-79.308 39.582-81.363-.866-.361-75.992-29.164-76.785-115.718ZM784.1 91.348C804.071 67.159 817.553 33.524 813.839 0c-28.769 1.155-63.59 19.179-84.247 43.368-18.493 21.378-34.715 55.623-30.319 88.465 32.085 2.487 64.852-16.332 84.827-40.485"/></svg>