<svg xmlns="http://www.w3.org/2000/svg" xmlns:xlink="http://www.w3.org/1999/xlink" fill="#d0d0d5" viewBox="0 40 1700 200"><defs><path id="a" d="M684.03 170v.84c2.51 0 4.46.83 4.46 2.79 0 1.11-.84 2.79-3.35 2.79-1.95 0-6.14-1.12-9.21-2.23-3.62-1.4-6.97-2.52-9.76-2.52-5.58 0-9.49 4.19-9.49 8.93 0 4.19 3.07 5.59 4.18 6.14.03-.05.26-.5.28-.55-.55-.56-1.39-1.12-1.39-2.8 0-1.11 1.11-3.06 3.91-3.06 2.51 0 5.86 1.11 10.32 2.51 3.91 1.11 8.09 1.95 10.33 2.23v8.65l-4.19 3.63v.28l4.19 3.62v12c-2.24 1.4-4.75 1.68-6.98 1.68-4.19 0-7.81-1.12-10.88-4.47l11.44-5.58v-19.25c-8.37 3.68-13.03 5.73-13.96 6.14 1.12-3.63 4.19-6.14 7.26-7.82-.03-.08-.25-.75-.28-.83-8.37 2.23-15.91 10.04-15.91 19.53 0 11.16 9.21 19.53 19.54 19.53 11.16 0 18.42-8.93 18.42-18.13h-.56c-1.68 3.62-4.19 6.97-7.26 8.65v-11.45l4.47-3.62v-.28l-4.47-3.63v-8.65c4.19 0 8.37-2.79 8.37-8.09 0-5.58-5.3-6.98-9.48-6.98zm-18.14 39.35c-1.96-2.51-3.07-5.86-3.07-10.61 0-1.95 0-4.18.56-5.86.39-.16 2.34-1 5.86-2.51v17.3c-2.01 1.01-3.13 1.57-3.35 1.68zm29.3 7.53.56.56 1.67-1.4 6.14 5.59 8.37-5.59-.28-.55-2.23 1.39-2.79-2.79v-18.97l2.23-1.68 4.75 3.91v17.02c0 10.6-2.24 12.28-6.98 13.95v.84c7.81.28 15.07-2.23 15.07-15.91v-18.41l2.51-1.96-.56-.56-2.23 1.68-6.98-5.86-7.81 5.86v-22.88h-.56l-9.77 6.69v.56c1.12.56 2.8 1.12 2.8 4.19-.02 2.1-.12 12.61-.28 31.53l-3.63 2.79zm47.72-.56-6.98-5.58v-3.35l13.12-8.93v-.28l-6.7-10.04-14.51 7.81v18.42l-2.79 2.23.56.56 2.51-1.95 9.49 6.97 12.55-10.04-.28-1.12-6.97 5.3zm-6.98-23.72.56-.28 6.14 9.77-6.7 4.19V192.6zm66.7-20.65h-.56c-.84 2.24-1.96 3.35-4.75 3.35-2.51 0-4.18-1.39-5.3-2.51-.54.61-3.24 3.68-8.09 9.21l.56.56c1.67-1.51 2.6-2.35 2.79-2.51 1.67 1.39 3.07 2.51 6.97 2.79V206c-9.87-16.91-15.36-26.31-16.46-28.19-1.4-2.23-3.35-5.3-7.26-5.3-4.46 0-8.37 3.91-7.81 10.05h.84c.28-1.68 1.11-3.63 3.07-3.63 1.39 0 2.79 1.4 3.63 2.79v9.21c-5.03 0-8.38 2.23-8.38 6.42 0 2.23 1.12 5.58 4.47 6.42v-.56c-.56-.56-.84-1.12-.84-1.96 0-1.39 1.12-2.51 3.07-2.51h1.4v11.72c-5.86 0-10.61 3.35-10.61 8.93 0 5.31 4.47 7.82 9.49 7.54v-.56c-3.07-.28-4.46-1.67-4.46-3.63 0-2.51 1.67-3.63 3.9-3.63s4.19 1.4 5.58 3.07c.54-.59 3.24-3.57 8.1-8.93l-.56-.55c-1.17 1.34-1.83 2.08-1.96 2.23-3.07-2.79-4.74-3.63-8.37-4.19v-27.9l22.33 39.06h1.67v-39.06c4.19-.28 8.09-3.63 8.09-8.38 0-.83-.27-1.67-.55-2.51zm13.95 44.37-6.98-5.58v-3.35l13.12-8.93v-.28l-6.7-10.04-14.51 7.81v18.42l-2.79 2.23.56.56 2.51-1.95 9.49 6.97 12.55-10.04-.27-1.12-6.98 5.3zm-6.98-23.72.56-.28 6.14 9.77-6.7 4.19V192.6zm57.49 0-5.3-4.46-6.14 5.58 2.51 2.51v20.93l-6.7-4.19v-17.3l2.23-1.39-6.41-6.14-6.14 5.58 2.51 2.51v20.09l-.84.56-5.86-4.18v-16.75c0-3.9-1.95-5.02-4.19-6.42-1.95-1.39-3.07-2.23-3.07-4.18 0-1.68 1.68-2.51 2.52-3.07v-.56c-2.24 0-8.1 2.23-8.1 7.53 0 2.8 1.4 3.91 2.79 5.31 1.4 1.39 2.79 2.51 2.79 5.02v16.19l-3.06 2.23.55.56 2.79-2.24 6.42 5.58 6.98-4.74 7.81 4.74 14.79-8.65v-18.69l3.63-2.79-.56-.56-1.95 1.39zm51.07-14.23-6.14-5.58-9.21 6.7v-6.14h-.84c.17 27.12.26 42.19.28 45.21-.84 0-3.35-.56-5.3-1.12-.06-3.77-.5-33.91-.56-37.67 0-2.79-1.95-6.7-6.98-6.7-5.02 0-8.37 3.91-8.37 7.81h.84c.28-1.67 1.11-3.07 2.79-3.07 1.67 0 3.07 1.12 3.07 4.75v10.88c-5.02.28-8.09 3.07-8.09 6.7 0 2.23 1.11 5.58 4.46 5.58v-.56c-1.12-.56-1.39-1.39-1.39-1.95 0-1.68 1.39-2.23 3.62-2.23h1.12v17.3c-4.19 1.39-5.86 4.46-5.86 7.81 0 4.74 3.63 8.09 9.21 8.09 3.91 0 7.25-.55 10.6-1.39 2.79-.56 6.42-1.4 8.1-1.4 2.23 0 3.06 1.12 3.06 2.51 0 1.96-.83 2.79-1.95 3.07v.56c4.47-.84 7.26-3.63 7.26-7.81 0-4.19-4.19-6.7-8.65-6.7-2.24 0-6.98.84-10.33 1.4-3.91.83-7.81 1.39-8.93 1.39-1.95 0-4.18-.84-4.18-3.63 0-2.23 1.95-4.18 6.69-4.18 2.51 0 5.58.28 8.65 1.11 3.35.84 6.42 1.68 9.21 1.68 4.19 0 7.82-1.4 7.82-7.26v-34.32l3.34-2.79-.55-.56-2.79 2.51zm-12 16.19c-1.4 0-2.79-.84-3.35-1.68V180.6l2.79-1.95 3.91 3.63v10.6c-1.31 1.12-2.42 1.68-3.35 1.68zm0 5.3c-1.4 0-2.79.84-3.35 1.39V194c.56.56 1.95 1.39 3.35 1.39 1.39 0 2.79-.83 3.35-1.39v7.25c-1.31-.93-2.42-1.39-3.35-1.39zm-1.12 18.98h-2.23v-16.47c.56-.56 1.95-1.39 3.35-1.39 1.39 0 2.51.83 3.35 1.39v12c-.93 2.98-2.42 4.47-4.47 4.47zm33.77-30.7-13.68 7.81v18.14l-2.79 2.23.28.56 2.23-1.67 8.93 6.69 13.96-8.37v-18.97l-8.93-6.42zm-6.14 3.91 6.97 5.02v19.81l-6.97-4.74v-20.09zm41.02-3.35c-.84.55-1.68 1.11-2.51 1.11-1.12 0-2.51-.56-3.07-1.39h-.56l-4.74 5.3-4.75-5.3-8.37 5.58.28.56 2.23-1.4 2.79 3.07v17.58l-3.63 2.79.56.56 1.68-1.39 6.69 5.58 8.65-5.86-.27-.56-2.52 1.39-3.34-2.79V194c1.39 1.39 3.06 2.79 5.02 2.79 3.91.28 6.14-3.63 6.42-8.09h-.56zm24.56 33.2-12.84-19.53 9.21-14.23h.56c1.11 1.11 2.79 2.23 4.74 2.23s3.35-1.12 4.19-2.23h.55c-.28 5.58-4.18 8.93-6.97 8.93s-4.19-1.4-5.86-2.23c-.06.09-.34.55-.84 1.39l13.95 20.65 2.79-1.67v.28l-9.48 6.41zm-24.84-5.02.56.56 1.67-1.4 6.14 5.59 8.37-5.59-.56-.55-2.23 1.39-2.79-2.79v-42.97h-.28l-10.04 6.69v.56c1.11.56 2.79.84 2.79 4.19v31.53l-3.63 2.79zm71.16-46.88v.84c2.51 0 4.46.83 4.46 2.79 0 1.11-.83 2.79-3.34 2.79-1.96 0-6.14-1.12-9.21-2.23-3.63-1.12-6.98-2.24-9.77-2.24-5.58 0-9.49 4.19-9.49 8.93 0 4.19 3.07 5.58 4.19 6.14.03-.05.25-.5.28-.56-.84-.55-1.68-1.11-1.68-2.79 0-1.11 1.12-3.07 3.91-3.07 2.51 0 5.86 1.12 10.32 2.52 3.91 1.11 8.1 1.95 10.33 2.23V194l-4.19 3.63v.28l4.19 3.62v12c-2.23 1.4-4.74 1.68-6.98 1.68-4.18 0-7.81-1.12-10.88-4.47.76-.37 4.58-2.23 11.44-5.58v-19.53c-8.37 3.68-13.02 5.73-13.95 6.14 1.39-3.63 4.46-6.14 7.25-8.1-.02-.05-.25-.5-.28-.55-8.37 2.23-15.9 9.76-15.9 19.25 0 11.16 9.21 19.53 19.53 19.53 11.16 0 18.42-8.93 18.42-18.13h-.56c-1.67 3.62-4.18 6.97-7.25 8.65v-11.44l4.46-3.63v-.28l-4.18-3.63v-8.37c4.18 0 8.37-2.79 8.37-8.09 0-5.58-5.3-6.98-9.49-6.98zm-18.14 39.35c-1.95-2.51-3.07-5.86-3.07-10.61 0-1.95.28-4.18.84-5.86.39-.16 2.34-1 5.86-2.51l-.28 17.3c-2.01 1.01-3.13 1.57-3.35 1.68zm37.12-35.16-5.59 4.74v.28l4.75 5.3h.56l5.58-4.74v-.28l-5.03-5.3h-.27zm6.41 42.69-2.79-2.79v-19.25l2.79-1.96-.55-.56-1.96 1.68-5.02-5.86-8.09 5.58.55.84 1.96-1.4 2.51 3.07v18.14l-3.63 2.79.28.56 1.95-1.4 6.14 5.58 8.38-5.58-.28-.83-2.24 1.39zm46.89-.28-3.07-2.79v-18.97l2.79-2.24-.56-.55-2.23 1.95-6.42-5.86-8.37 5.86-6.42-5.86-7.82 5.86-5.02-5.86-8.09 5.58.28.84 1.95-1.4 2.79 3.07v18.14l-2.23 2.23 6.42 5.3 6.14-5.58-2.52-2.51v-18.97l2.52-1.68 4.18 3.91v16.74l-2.23 2.23 6.42 5.31 6.14-5.58-2.51-2.52v-18.41l2.23-1.4 4.46 3.91v16.74l-1.95 1.95 6.42 5.86 8.65-5.86v-.83l-1.95 1.39zm19.25-.28-6.98-5.58v-3.35l13.12-8.93v-.28l-6.7-10.04-14.51 7.81v18.98l9.77 6.97 12.56-10.04-.28-.84-6.98 5.3zm-6.98-23.72.56-.28 6.14 9.77-6.7 4.19V192.6zm34.05 6.98c3.63-3.07 5.02-7.26 5.02-10.05v-1.67h-.56c-.55 1.39-1.67 2.79-3.9 2.79-2.24 0-3.63-1.12-5.03-2.79-.83.46-5.02 2.79-12.55 6.98v10.04c2.84 2.18 4.42 3.39 4.74 3.63-4.74 4.19-5.58 6.98-5.58 9.21 0 2.79 1.39 4.74 3.63 5.58.02-.06.25-.5.28-.56-.56-.56-1.12-.84-1.12-2.23 0-.84 1.12-2.23 3.35-2.23 2.79 0 4.46 1.95 5.3 2.79.8-.49 4.8-2.9 12-7.26v-10.04h-.28c-3.18-2.52-4.95-3.91-5.3-4.19zm-6.42 4.19c-.2-.17-1.23-1.01-3.07-2.52v-9.76c1.12 2.79 4.19 5.02 7.26 5.02 1.95 0 3.07-.28 4.46-1.12-1.95 3.35-6.14 6.7-8.65 8.38zm-4.19 8.65c-.83 0-3.06 0-5.3 1.39 1.4-2.23 5.03-6.14 9.77-8.93.22.19 1.34 1.12 3.35 2.79l.28 10.05c-3.17-3.54-5.86-5.3-8.1-5.3z"/><path id="b" d="M1446.3 226.25v-70h74.28v70h-74.28zm-171.32 0v-70h74.28v70h-74.28zm85.66 0v-70h74.28v70h-74.28zm125.1-60.76-.56.02-.54.02-.53.03-.51.03-.49.04-.47.05-.46.04-.44.05-.42.06-.4.05-.39.06-.37.06-.35.06-.33.06-.31.07-.3.06-.28.06-.5.12-.22.05-.2.06-.18.05-.17.05-.15.04-.12.04-.11.04-.09.03-.07.02-.05.02-.03.01h-.01l-1.45.48-1.37.52-1.3.56-1.23.6-1.17.64-1.09.66-1.03.7-.97.72-.91.74-.84.76-.79.78-.74.8-.68.8-.64.82-.58.82-.54.82-.49.83-.44.82-.41.81-.37.81-.33.79-.29.78-.27.77-.23.74-.2.72-.17.7-.15.66-.13.64-.1.6-.08.56-.07.53-.05.48-.04.43-.03.39-.01.33-.01.28-.01.22V191.25l.07 1.31.12 1.27.17 1.22.21 1.18.26 1.13.29 1.1.34 1.04.36 1.01.4.97.43.92.46.88.48.85.5.81.51.77.53.73.55.69.56.66.56.62.56.59.57.56.57.52.56.49.56.45.55.43.53.39.52.37.51.33.48.31.46.27.44.25.4.23.38.19.34.18.3.14.27.12.22.1.18.08.13.05.08.03.03.01 1.32.5 1.31.43 1.3.38 1.29.33 1.27.28 1.26.23 1.25.18 1.22.14 1.21.1 1.18.05 1.17.03 1.14-.02 1.12-.04 1.09-.08 1.07-.1 1.04-.12 1.02-.15.98-.17.95-.19.92-.2.89-.22.85-.22.82-.24.78-.24.74-.24.71-.25.66-.24.62-.24.58-.24.53-.22.49-.22.45-.2.39-.19.35-.17.3-.16.24-.12.19-.11.14-.08.09-.05.03-.01v-9.64l-.85.53-.84.5-.82.47-.81.45-.8.41-.78.39-.77.36-.76.34-.74.31-.72.29-.71.26-.69.25-.68.23-.65.2-.64.19-.62.17-.6.15-.58.13-.56.12-.54.11-.52.09-.49.08-.47.06-.45.06-.43.05-.4.03-.38.03-.36.02-.33.01-.3.01-.27.01h-.25l-.23-.01h-.19l-.16-.01-.14-.01-.11-.01-.08-.01h-.06l-1.46-.1-1.39-.16-1.31-.21-1.24-.26-1.17-.31-1.1-.35-1.04-.4-.98-.43-.91-.47-.85-.5-.8-.52-.74-.56-.69-.57-.63-.6-.59-.61-.54-.63-.49-.63-.45-.65-.41-.65-.37-.65-.33-.64-.3-.65-.26-.63-.23-.62-.2-.61-.17-.6-.15-.57-.13-.55-.1-.52-.08-.5-.07-.46-.05-.42-.04-.39-.02-.34-.02-.3-.01-.26v-.47l.1-1.34.16-1.27.22-1.2.27-1.14.33-1.07.38-1.02.43-.95.47-.9.51-.84.54-.79.58-.74.6-.68.64-.64.65-.59.68-.54.69-.5.7-.47.71-.42.71-.38.72-.35.72-.31.71-.28.7-.25.69-.22.67-.19.66-.17.64-.14.6-.12.58-.11.55-.08.51-.07.48-.05.42-.04.39-.03.33-.02.28-.01.23-.01h.3l.75.02.74.04.74.05.74.08.73.09.72.1.71.12 1.4.28.68.16.67.16.66.18.65.18.64.19.62.2.6.2.59.21.57.21.56.21.54.21.52.21.49.21.48.21.46.2.44.2.41.19.39.19.37.18.34.17.31.17.29.15.26.14.24.13.2.11.18.1.14.08.12.07.08.05.05.03.02.01v-9.3l-.62-.25-.6-.24-.59-.23-.58-.22-.57-.21-.56-.21-.55-.19-.54-.18-.53-.17-.51-.17-.5-.16-.49-.14-.47-.14-.46-.14-.45-.12-.44-.12-.42-.11-.4-.1-.39-.1-.38-.08-.36-.09-.34-.07-.33-.07-.31-.07-.3-.06-.27-.05-.26-.05-.25-.04-.22-.04-.21-.03-.19-.03-.17-.03-.15-.02-.14-.02-.11-.01-.09-.02h-.07l-.06-.01h-.03l-.01-.01-.71-.06-.69-.05-.67-.04-.66-.03-.64-.03-.62-.01-.61-.01-.6.01h-.57zm-191.24 50.93h20.27l.14-.01h.21l.29-.02.36-.02.43-.03.49-.05.54-.07.58-.08.63-.11.67-.13.7-.15.72-.19.74-.21.76-.25.76-.28.77-.32.77-.36.75-.41.75-.45.72-.5.7-.54.66-.6.63-.66.59-.71.54-.77.49-.84.42-.9.36-.96.29-1.04.22-1.1.13-1.18.05-1.26v-.23l-.01-.17-.01-.21-.02-.25-.02-.29-.05-.32-.05-.36-.07-.38-.09-.41-.11-.43-.13-.45-.16-.47-.18-.49-.21-.49-.24-.51-.27-.51-.31-.52-.35-.51-.38-.52-.42-.51-.47-.5-.51-.5-.55-.48-.61-.46-.65-.45-.71-.42-.77-.41-.82-.37-.88-.35-.93-.31-1.01-.28.02-.01.05-.02.2-.1.13-.07.17-.09.18-.1.21-.13.22-.14.25-.15.25-.18.27-.19.27-.22.29-.23.29-.25.29-.28.29-.29.29-.31.29-.33.28-.36.28-.37.26-.4.26-.42.24-.44.22-.46.2-.49.19-.5.16-.54.13-.55.11-.58.08-.61.04-.62.02-.66v-.12l.01-.16v-.21l-.01-.26-.01-.3-.03-.35-.05-.39-.06-.43-.08-.46-.11-.48-.13-.51-.17-.54-.2-.55-.23-.56-.28-.57-.31-.58-.37-.58-.41-.58-.46-.57-.51-.57-.58-.55-.63-.53-.7-.52-.76-.49-.83-.46-.9-.43-.98-.4-1.06-.35-1.14-.32-1.22-.26-1.31-.22-1.4-.16h-17.65v50.31zm85.66 0h20.27l.14-.01h.21l.29-.02.36-.02.43-.03.49-.05.54-.07.58-.08.63-.11.67-.13.7-.15.72-.19.74-.21.76-.25.76-.28.77-.32.77-.36.75-.41.75-.45.72-.5.7-.54.66-.6.63-.66.59-.71.54-.77.48-.84.43-.9.36-.96.29-1.04.22-1.1.13-1.18.05-1.26v-.23l-.01-.17-.01-.21-.02-.25-.03-.29-.04-.32-.05-.36-.07-.38-.09-.41-.11-.43-.13-.45-.16-.47-.18-.49-.21-.49-.24-.51-.28-.51-.3-.52-.35-.51-.38-.52-.42-.51-.47-.5-.51-.5-.55-.48-.61-.46-.66-.45-.7-.42-.77-.41-.82-.37-.88-.35-.94-.31-1-.28.02-.01.05-.02.08-.04.11-.06.14-.07.17-.09.18-.1.21-.13.22-.14.24-.15.26-.18.27-.19.27-.22.29-.23.29-.25.29-.28.29-.29.29-.31.29-.33.28-.36.28-.37.26-.4.26-.42.24-.44.22-.46.2-.49.19-.5.16-.54.13-.55.11-.58.08-.61.04-.62.01-.66.01-.03v-.09l.01-.16v-.21l-.01-.26-.02-.3-.02-.35-.05-.39-.06-.43-.08-.46-.11-.48-.13-.51-.17-.54-.2-.55-.23-.56-.28-.57-.31-.58-.37-.58-.41-.58-.46-.57-.51-.57-.58-.55-.63-.53-.7-.52-.76-.49-.83-.46-.91-.43-.97-.4-1.06-.35-1.14-.32-1.22-.26-1.31-.22-1.4-.16h-17.65v50.31zm-62.85-20.97 1.56.63 1.2.77.9.87.63.9.41.87.23.79.11.63.04.42v.16l-.22 1.88-.61 1.52-.9 1.2-1.12.91-1.24.66-1.29.46-1.24.29-1.12.16-.9.07-.61.01-.22-.01h-9.46V194.9h9.46l2.42.14 1.97.41zm85.66 0 1.56.63 1.2.77.9.87.62.9.41.87.24.79.11.63.04.42v.16l-.22 1.88-.61 1.52-.9 1.2-1.12.91-1.24.66-1.29.46-1.24.29-1.12.16-.9.07-.61.01-.22-.01h-9.46V194.9h9.46l2.42.14 1.97.41zm-88.37-20.6 1.27.81.89.93.58.96.34.9.16.75.04.52v.19l-.28 2.07-.76 1.61-1.11 1.23-1.3.88-1.38.6-1.3.37-1.1.19-.77.08-.28.01h-6.14v-13.01h7.21l2.22.31 1.71.6zm85.66 0 1.27.81.89.93.58.96.34.9.15.75.05.52v.19l-.28 2.07-.76 1.61-1.11 1.23-1.3.88-1.38.6-1.3.37-1.11.19-.76.08-.28.01h-6.14v-13.01h7.21l2.22.31 1.71.6z"/><path id="c" d="M1466.8 79.39c0-10.69-8.7-19.39-19.38-19.39-10.7 0-19.39 8.7-19.39 19.39s8.69 19.38 19.39 19.38c4.05.01 7.99-1.26 11.28-3.63.32.33 1.94 1.94 4.85 4.86l4.32-4.31-4.83-4.84c2.51-4.89 3.77-8.71 3.76-11.46zm-15.31-.08-4.31 4.31c4.27 4.28 6.65 6.65 7.12 7.13a13.25 13.25 0 0 1-6.88 1.92c-7.33 0-13.29-5.96-13.29-13.28 0-7.33 5.96-13.29 13.29-13.29 7.32 0 13.28 5.96 13.28 13.29 0 2.5-.71 4.96-2.05 7.08l-7.16-7.16zm190.27-18.35v6.16h-11.52v30.82h-6.25V67.12h-11.52v-6.16h29.29zm-103.87 0-14.25 36.98h6.54l2.67-7.2h17.58l2.67 7.2h6.54l-14.25-36.98h-7.5zm3.75 7.32 6.41 16.7h-12.82l6.41-16.7zm142.39-1.16-20.67 24.58h20.67v6.24h-28.82v-6.57l20.75-24.25h-19.31v-6.1h27.38v6.1zm-172.48 17.24c0 7.93-6.44 14.38-14.37 14.38-7.94 0-14.39-6.45-14.39-14.38v-23.4h6.24v23.4c-.14 4.57 3.58 8.28 8.15 8.28 4.56 0 8.27-3.71 8.18-8.28v-23.4h6.19v23.4zm87.78-10.43c0-6.78-5.59-12.83-12.55-12.97h-13.7v36.98h6.25V86.81h5.65l12.88 13.04 4.33-4.29-10.01-10.14c4.76-4.31 7.15-8.14 7.15-11.49zm-20 6.77V67.16h6.99c3.81 0 6.91 3.04 6.91 6.77 0 3.74-3.1 6.77-6.91 6.77h-6.99z"/><path id="d" d="M1280.7 53.2c-.05.49-.6 4.84-1.08 8.35-.54 3.24-4.87 27.31-6.34 34.51-.39 2.18-1.58 8.32-1.69 8.94-1.38.16-3.01.31-4.07.35-.14.01-.38.06-.49.06v1.24c.13 0 .82.05 1.3.03 1.17-.04 4.49-.2 5.12-.2 2.39 0 3.98.16 6.19.21.03 0 .64-.01.9-.04v-1.26c-.18 0-.42-.01-.57-.01-.62.02-2.92-.15-4.08-.31.13-.83 2.16-13.29 3.14-18.27 1.85-9.23 3.13-15.77 3.13-15.77.03.06.14.33.35.82l14.64 34.88c1.6.01 2.49.02 2.67.02 0 0 1.52-3.78 3.34-8.02.04-.1.17-.4.36-.84 1.9-4.4 11.32-26.73 11.32-26.73s.09.4.23 1.12c.9 4.38 3.94 20.16 4.58 23.96.31 1.96.59 3.94.76 5.11.24 1.65.4 3.26.4 3.72-.3.01-3.28.28-4.41.33-.16 0-.46.01-.48.02v1.26c.41 0 .8.02 1.19.01 2.3-.04 4.52-.22 6.82-.22 2.59 0 6.79.23 9.48.25.3 0 .84-.03.84-.03v-1.28c-.15 0-.83-.04-1.08-.06-1.2-.09-3.23-.28-3.75-.31 0 0-.33-1.85-.77-3.98-1.76-8.51-6.76-34.39-7.53-40.75-.26-2.19-1-7.11-1-7.11h-3.02l-2.93 8.44c-.96 2.75-2.26 6.14-3.25 8.74-4.9 12.86-10.38 24.85-10.38 24.85s-11.67-27.83-12.28-29.44c-.63-1.61-4.44-12.61-4.44-12.61s-1.98.04-3.12.02zm-80.69 2.94-.05 7.16.78-.02c.04-3.83.07-5.95.08-6.37 0 0 4.25-.04 4.8-.04h7.94l5.12.03.01 44.3v3.83c-.07.01-.1.01-.11.01-.68.06-3.31.22-4.37.26-.24 0-.39.01-.42.01 0 .13.01 1.16.01 1.29.19.01.71.02.77.02 2.53-.03 5.94-.25 8.35-.25 2.46 0 5.92.24 8.06.27.21 0 .46-.02.66-.02v-1.22h-.26c-.68 0-4.45-.24-4.84-.29-.02-.6-.09-3.47-.09-3.53 0-2.98.01-17.87.02-44.69l3.9-.01 10.17.01c2.04.03 3.17.04 3.39.05.03.24.2 3.47.19 3.55 0 .24.13 2.64.13 3.23.05 0 .32.01.8.01l-.06-7.24c.03-1.96.04-3.04.04-3.26-2.99.08-10.61.18-22.43.18-10.14-.01-19.91-.09-22.62-.22l.03 2.95zm47.34-1.67c.4.03 2.76.24 3.34.26.45.06 1.09.12 1.55.16 0 .41.01 3.21.01 4.32.08 10.48.02 33.66-.01 41.86-.01 2.37-.02 3.9-.02 3.9-.29.09-.94.12-1.64.17-.61.04-2.76.22-3.24.23v1.27c.2 0 .56.04.77.04 2.44 0 5.83-.31 8.33-.3 2.53 0 5.9.31 7.89.31.17 0 .58-.05.75-.04v-1.27h-.17c-.08-.02-2.65-.13-3.27-.19-.33-.02-1.74-.15-1.76-.19 0-.03-.01-.41-.01-1.04.01-.6.01-1.6.01-2.68 0-8.27.03-32.84.03-42.23 0-1.81.01-3.29.01-4.08.55-.03 2.81-.27 3.62-.34.03 0 1.1-.06 1.54-.09v-1.32c-2.76 0-6.42.21-9.11.21-2.82 0-6.29-.22-8.63-.22l.01 1.26zm126.95-1.23c-1.85.01-6.57.05-12.1.08-3.4.02-6.05.04-9.55.04-2.45.03-5.89.13-8.01.12-3.38 0-6.14-.21-7.64-.22-.72 0-1.11.03-1.31.01.01.02.01 1.26.01 1.26.13.02.39.05.64.04.85.06 2.44.19 3.24.29.17.03.44.08 1.2.16-.01.28.03 3.46.03 5.37l-.02 41.26c0 .06-.09 3.17-.09 3.42-1.34.23-3.92.37-4.8.38h-.26v1.25c.13 0 .7.03 1.03.03 1.42-.01 5.08-.23 8.81-.23 2.62-.01 5.5.09 8.42.13 3.59.05 7.22.06 10.49.1 5.38.08 9.75.09 11.17.09 0 0 .17-9.99.17-10.8-.08 0-.7.01-.78.01 0 .85-.31 4.02-.32 4.15-.1 1.19-.21 2.44-.29 3.06 0 0-.38.03-.57.02-.88-.01-3.71.09-3.77.09-.84 0-5.04 0-12.61.01l-8.85-.15-.06-2.46c0-11.44-.01-17.8-.01-19.07 1.58-.05 3.99-.13 5.46-.13 1.25 0 4.19-.07 5.83-.07 4 .01 7.55.04 7.84.05.65.01 1.88.05 2.34.08.02.17.07.43.08.51.24 1.46.37 2.47.53 3.9.02.13.03.26.05.37h.91s.02-.51.01-.83c-.02-1.12-.09-3.36-.09-5.85 0-1.72.1-4.36.11-5.62 0-.34-.04-.59-.04-.69-.08.01-.75.02-.83.02 0 .27-.07.68-.07.68-.07.94-.34 2.15-.55 3.42-.06.16-.1.38-.1.38-.1.03-2.7.17-2.94.17-.09 0-3.88.11-3.95.11-.97-.01-5.83-.03-14.58-.06.01-12.61.02-19.62.02-21.03 0 0 1.86-.06 2.37-.06 2.11 0 5.53-.02 9.01-.01 5.1 0 10.06.04 10.07.04.03.02 1.54.04 1.56.06.04.03 1.93.09 2.39.1 0 0 .04.16.06.36.21 2.22.38 4.85.46 5.78v.37h.78c0-1.36-.07-5.54-.08-8.2-.01-.86.01-1.55.01-1.95v-.34h-.83z"/><path id="e" d="M275.98 58.39v43.37h21.37c5.97 0 9.42-.94 11.94-3.14 3.14-2.83 4.71-7.86 4.71-18.54 0-10.69-1.57-15.71-4.71-18.54-2.52-2.2-5.97-3.15-11.94-3.15h-21.37zm26.71 34.57c-1.26.94-2.83 1.26-5.97 1.26h-11.94v-28.6h11.94c3.14 0 4.71 0 5.97 1.26 1.88 1.57 2.51 3.77 2.51 13.2s-.63 11.63-2.51 12.88zM325 111.35h-62.69v-62.7H325v62.7zM211.09 65.62v-7.23h37.08v13.83h-7.86v-6.6h-15.09v10.37h11.95v6.92h-11.95v11.62h15.41v-7.54h7.85v14.77h-37.39v-7.23h5.97V65.62h-5.97zm-32.69 35.83h8.49c-.32-2.2-.63-6.29-.63-11.63-.32-6.29-2.2-7.23-6.6-8.17 5.03-.94 7.23-3.14 7.23-11 0-6.28-.95-8.8-2.83-10.37-1.26-1.26-3.46-1.89-6.92-1.89h-26.39v43.37h8.8V84.79h12.25c2.52 0 3.46.32 4.4.94.95.63 1.26 1.58 1.26 4.72 0 4.71.31 8.17.94 11zm-18.85-23.57V65.94h14.14c1.89 0 2.51.31 2.83.63.62.62 1.25 1.57 1.25 5.34s-.63 5.03-1.25 5.65c-.32.32-.94.63-2.83.63-1.89-.04-6.6-.14-14.14-.31zm-22.94 33.47v-62.7h62.69v62.7h-62.69zm-16.34-16.82v7.23H90.41v-7.23h10.69V65.62H90.41v-7.23h29.85v7.23h-10.68v28.91h10.69zM69.83 58.39h-8.17l-5.97 34.26c-4.15-19.05-6.45-29.63-6.92-31.74-.31-2.2-1.25-2.52-3.14-2.52h-4.4c-1.88 0-2.83.63-3.14 2.52-.46 2.11-2.77 12.69-6.91 31.74l-5.97-34.26h-8.8c5.09 24.7 7.92 38.43 8.48 41.17.32 1.89.94 2.2 3.14 2.2H34c1.89 0 2.52-.31 3.15-2.2l6.6-29.85 6.6 29.85c.31 1.89.94 2.2 3.14 2.2h5.65c1.89 0 2.83-.31 3.15-2.2 1-5.49 3.52-19.21 7.54-41.17zm-58.45 52.96v-62.7h62.69v62.7H11.38z"/><path id="f" d="m779.89 96.15-.09-.2-.1-.21-.18-.42-.08-.21-.09-.21-.16-.44-.07-.21-.08-.22-.07-.22-.07-.23-.06-.22-.07-.23-.06-.22-.12-.46-.05-.23-.05-.24-.05-.23-.05-.24-.16-.96-.03-.24-.06-.5-.02-.24-.03-.25-.02-.26-.01-.25-.02-.25-.03-.78v-.52l.03-1.22.09-1.18.14-1.15.21-1.12.25-1.08.31-1.05.37-1.01.41-.99.46-.95.51-.91.55-.88.6-.85.64-.82.68-.79.72-.75.76-.72.79-.7.83-.65.87-.63.9-.6.92-.56.96-.54.99-.5 1.01-.48 1.03-.44 1.06-.42 1.08-.38 1.11-.36 1.12-.32 1.13-.3 1.16-.26 1.16-.24 1.19-.21 1.19-.18 1.2-.15 1.21-.13 1.22-.1 1.22-.06 1.23-.05 1.23-.01H812.04l.45.01.51.02.55.02.59.04.64.04.67.06.71.08.74.09.77.1.79.13.82.15.83.17.85.19.87.22.87.25.88.27.88.3.89.34.88.37.88.4.87.43.85.48.85.51.82.55.8.6.78.63.76.69.72.72.69.78.65.82.62.88.57.93.53.98.47 1.03.43 1.09.37 1.15.32 1.21.25 1.27.19 1.34-19.85 1.95-.04-.74-.02-.38-.03-.37-.12-1.11-.06-.37-.06-.36-.07-.36-.07-.35-.18-.7-.1-.34-.24-.66-.13-.31-.15-.32-.15-.3-.17-.29-.18-.29-.19-.27-.42-.52-.24-.24-.24-.23-.27-.22-.27-.2-.3-.19-.3-.18-.33-.16-.34-.15-.36-.13-.38-.12-.39-.1-.42-.08-.43-.07-.45-.05-.48-.02-.49-.01-.63.01-.6.03-.58.06-.54.08-.52.1-.49.13-.47.14-.44.16-.41.19-.4.2-.37.22-.34.23-.33.26-.3.26-.29.29-.26.3-.25.31-.23.32-.21.34-.19.35-.18.36-.16.38-.15.38-.13.39-.12.41-.11.4-.09.42-.09.43-.07.43-.06.43-.06.45-.04.44-.04.45-.03.46-.02.45-.02.46-.02.92v.46l-.01.46v.16l.01.46v.46l.02.92.02.46.03.45.03.46.04.45.05.44.05.45.14.86.09.43.09.42.11.41.13.4.13.39.15.38.16.38.18.36.2.35.21.34.23.32.25.32.26.29.29.29.3.27.33.25.34.23.37.22.39.2.42.19.44.16.46.14.49.13.51.1.54.08.57.06.6.03.62.02.66-.02.33-.02.33-.03.32-.04.32-.05.62-.12.31-.08.3-.08.3-.09.29-.1.29-.11.28-.12.54-.26.26-.15.25-.15.48-.34.23-.18.22-.19.21-.2.2-.21.19-.22.19-.23.17-.24.16-.24.15-.26.14-.27.13-.27.11-.29.1-.29.09-.31.08-.31.06-.32.06-.34.03-.34.02-.35.01-.36h19.76l-.09 1.55-.26 1.06-.31 1.01-.35.97-.38.93-.42.89-.46.85-.49.8-.52.77-.56.73-.58.69-.61.66-.64.62-.66.58-.68.55-.71.52-.73.49-.75.46-.77.42-.78.4-.79.37-.81.35-.83.31-.83.29-.84.27-.85.25-.86.22-.86.2-.86.18-.87.16-.86.14-.87.12-.86.11-.86.09-.85.07-.85.06-.83.05-.83.04-.82.02-.8.02h-.79l-.96-.01-.96-.02-.95-.04-.95-.06-.95-.08-.95-.09-.94-.11-.94-.13-.93-.14-.92-.16-.91-.18-.91-.2-.9-.21-.89-.23-.87-.25-.87-.27-.86-.28-.84-.31-.83-.32-.81-.34-.8-.35-.79-.38-.76-.4-.75-.41-.74-.43-.71-.45-.7-.47-.67-.49-.66-.51-.63-.53-.62-.54-.59-.57-.56-.58-.54-.61-.52-.62-.49-.65-.47-.66-.44-.69-.41-.7-.2-.38v12.71h-35.98v-13.3h6.8V82.69l-.01-.31-.02-.29-.03-.3-.04-.28-.12-.54-.08-.25-.09-.25-.09-.24-.11-.24-.12-.22-.13-.22-.14-.2-.15-.2-.16-.2-.34-.36-.38-.32-.2-.16-.21-.14-.22-.14-.22-.13-.24-.12-.48-.22-.26-.1-.25-.09-.54-.16-.28-.07-.28-.06-.58-.1-.3-.04-.3-.03-.62-.04-.31-.01h-.72l-.4.02-.4.03-.39.05-.38.06-.37.07-.37.08-.37.1-.35.1-.35.12-.34.13-.33.14-.33.15-.62.34-.3.18-.29.19-.28.21-.27.21-.26.22-.25.23-.24.24-.22.25-.22.26-.21.26-.38.56-.17.29-.16.29-.28.62-.12.32-.11.32-.09.33-.08.34-.07.34-.05.35-.04.36-.02.35-.01.37v11.5h6.98v13.3h-36.8v-13.3h6.62V76.66h-6.62v-13.3h29.01v9.22l.04-.03.04-.04.2-.15.03-.04.08-.06.07-.07.08-.06.03-.04.04-.03.03-.04.04-.03.23-.23.03-.04.04-.03.03-.03.03-.04.06-.06.03-.04.12-.12.03-.04.02-.03.06-.06.39-.4.4-.39.41-.38.4-.36.41-.36.41-.34.84-.64.42-.3.43-.29.43-.28.44-.27.44-.26.45-.25.44-.23.92-.44.46-.2.47-.19.47-.18.48-.17.48-.16.49-.15.5-.14 1-.26.51-.11 1.04-.2.53-.08.54-.08.54-.07.55-.05.55-.06.56-.04 1.14-.06.58-.02.59-.01h.6l.83.01.83.02.83.04.81.05.8.07.78.09.78.11.76.12.75.14.74.16.72.18.71.19.69.21.67.24.66.25.64.27.62.29.6.31.58.33.56.35.54.38.52.39.5.42.47.43.45.46.42.49.4.5.38.53.35.55.32.57.29.6.27.62.23.65.21.67.18.7.15.72.11.75.08.77.05.8.02.82v17.46h5.89l-.1-.2-.1-.21zm68.74-.59 1.3.56 1.16.74 1.01.9.82 1.05.62 1.17.39 1.27.13 1.35-.13 1.35-.39 1.27-.62 1.17-.82 1.04-1.01.91-1.16.74-1.3.55-1.41.35-1.5.12-1.5-.12-1.41-.35-1.3-.55-1.16-.74-1.01-.91-.82-1.04-.62-1.17-.38-1.27-.14-1.35.14-1.35.38-1.27.62-1.17.82-1.05 1.01-.9 1.16-.74 1.3-.56 1.41-.35 1.5-.12 1.5.12 1.41.35zM692.89 63.28v33.36h8.88v13.22h-47.04V96.64h8.79V63.28h-8.79V49h47.04v14.28h-8.88z"/><path id="g" d="M392.17 114.4h5.15V86.88h-5.15v27.52zm18.88-.41h4.61V96.62l19.43 17.78V87.29h-4.6v17.07l-19.44-17.48v27.11zm43.33-3.58c3.14 0 5.35-1.08 5.35-3.48 0-2.08-1.41-2.9-3.87-3.81l-3.99-1.39c-3.69-1.31-6.48-3.22-6.48-7.6 0-4.7 4.23-7.25 9.3-7.25 3.11 0 5.94.78 8.15 2.16v4.66c-2.3-1.7-4.82-2.87-8.05-2.87-2.78 0-4.86 1.04-4.86 3.2 0 1.96 1.3 2.74 3.6 3.53.45.16 4.01 1.4 4.45 1.56 4.31 1.52 6.29 3.87 6.29 7.73 0 4.87-4.28 7.55-9.89 7.55-3.69 0-6.83-1.03-8.76-2.33v-4.75c3.68 2.06 6.6 3.09 8.76 3.09zm21.91 3.99h5.15V86.88h-5.15v27.52zm38.21-13.77c0-5.92-3.1-9.63-8.9-9.63h-5.74v19.24h5.74c5.94-2.49 8.9-5.69 8.9-9.61zm-8.73-13.75c8.16 0 13.43 5.38 13.43 13.75 0 8.39-5.27 13.77-13.43 13.77h-10.6V86.88h10.6zm39.19 0V91h-12.47v6.62h11.18v4.08h-11.18v8.54h12.47v4.16h-17.17V86.88h17.17zm23.39 12.46c3.02 0 4.73-1.66 4.73-4.21s-1.71-4.21-4.73-4.21h-5.11v8.42h5.11zm-5.11 15.06h-4.55V86.88h9.75c5.55 0 9.15 2.86 9.15 8.25 0 4.61-2 7.25-6.25 7.93.64.76 3.87 4.54 9.67 11.34h-5.17l-9.37-11.16h-3.23v11.16zM393.95 53.78c0-5.07-3.58-7.7-9.32-7.7H375v28.3h10.53c5.73 0 9.32-2.81 9.32-8.11 0-3-1.89-5.63-4.48-6.5 2.01-.74 3.58-2.95 3.58-5.99zm-14.43-3.55h5.07c3.18 0 4.88 1.15 4.88 3.82 0 2.68-1.7 3.92-4.88 3.92h-5.07v-7.74zm5.92 11.7c3.14 0 4.84 1.57 4.84 4.15 0 2.54-1.71 4.15-4.84 4.15h-5.91v-8.3h5.91zm41.44 1.2V46.08h-4.66v16.5c0 5.44-2.24 7.97-6.36 7.97s-6.36-2.53-6.36-7.97v-16.5h-4.66v17.01c0 7.79 4.48 11.75 11.02 11.75 6.59 0 11.02-3.96 11.02-11.71zm19.71 11.71c5.6 0 9.86-2.86 9.86-8.02 0-4.1-1.97-6.59-6.28-8.2-.44-.17-3.99-1.5-4.43-1.66-2.29-.83-3.58-1.66-3.58-3.74 0-2.3 2.06-3.41 4.83-3.41 3.23 0 5.74 1.25 8.02 3.05v-4.94c-2.19-1.47-5.01-2.3-8.11-2.3-5.06 0-9.27 2.72-9.27 7.7 0 4.65 2.78 6.68 6.45 8.06.4.15 3.59 1.33 3.99 1.48 2.46.96 3.85 1.84 3.85 4.05 0 2.54-2.19 3.69-5.33 3.69-3.23 0-6.23-1.2-8.74-3.27v5.02c3.38 1.66 6.29 2.49 8.74 2.49zm21.85-28.76v28.3h4.65v-28.3h-4.65zm22.43 28.26V55.93l18.9 18.85V46.03h-4.48v18.1l-18.9-18.53v28.74h4.48zm48.01-24.02h-12.09v6.81h10.85v4.19h-10.85v8.78h12.09v4.29h-16.66V46.08h16.66v4.24zm19.59 24.5c5.6 0 9.85-2.86 9.85-8.02 0-4.1-1.97-6.59-6.27-8.2-.44-.17-3.99-1.5-4.43-1.66-2.29-.83-3.59-1.66-3.59-3.74 0-2.3 2.06-3.41 4.84-3.41 3.22 0 5.73 1.25 8.02 3.05V47.9c-2.2-1.47-5.02-2.3-8.11-2.3-5.06 0-9.27 2.72-9.27 7.7 0 4.65 2.77 6.68 6.45 8.06.4.15 3.59 1.33 3.98 1.48 2.47.96 3.86 1.84 3.86 4.05 0 2.54-2.2 3.69-5.33 3.69-3.23 0-6.23-1.2-8.74-3.27v5.02c3.38 1.66 6.29 2.49 8.74 2.49zm28.13 0c5.6 0 9.86-2.86 9.86-8.02 0-4.1-1.97-6.59-6.27-8.2-.45-.17-3.99-1.5-4.44-1.66-2.28-.83-3.58-1.66-3.58-3.74 0-2.3 2.06-3.41 4.84-3.41 3.22 0 5.73 1.25 8.02 3.05V47.9c-2.2-1.47-5.02-2.3-8.11-2.3-5.07 0-9.28 2.72-9.28 7.7 0 4.65 2.78 6.68 6.45 8.06.4.15 3.59 1.33 3.99 1.48 2.47.96 3.86 1.84 3.86 4.05 0 2.54-2.2 3.69-5.34 3.69-3.22 0-6.22-1.2-8.73-3.27v5.02c3.37 1.66 6.29 2.49 8.73 2.49z"/><path id="h" d="m1061.5 67.62.6.08.6.11.58.13.57.16.56.19.55.22.53.24.53.27.5.29.49.31.48.34.45.36.44.37.43.4.4.42.38.44.36.46.34.47.31.49.3.51.27.52.24.54.22.55.19.56.16.57.14.59.11.6.07.6.05.62.02.62v.77l-.44.02h-.22l-.22.01h-.21l-.21.01h-.21l-.2.01h-.2l-.2.01h-.2l-.2.01h-.39l-.19.01h-.37l-.19.01h-.18l-.18.01h-.36l-.18.01h-.17l-.18.01h-.17l-.17.01h-.17l-.17.01h-.17l-.34.02v-1.23l-.03-.3-.04-.29-.05-.29-.07-.29-.08-.28-.09-.27-.11-.27-.12-.26-.13-.26-.3-.48-.17-.24-.18-.22-.19-.22-.2-.2-.21-.2-.22-.19-.22-.18-.48-.32-.25-.14-.26-.14-.27-.12-.27-.1-.28-.1-.29-.08-.58-.12-.3-.04-.31-.02-.3-.01-.31.01-.29.02-.3.04-.28.06-.29.06-.28.08-.27.1-.26.1-.26.12-.26.14-.24.14-.24.16-.23.16-.22.18-.21.19-.4.4-.36.44-.16.24-.15.24-.14.24-.13.26-.12.26-.2.54-.07.28-.07.29-.05.29-.04.29-.02.3-.01.3v19.26l.01.31.02.31.04.31.05.3.07.29.07.28.1.28.1.27.12.27.13.26.14.24.15.24.16.24.18.22.18.21.4.4.21.18.22.17.23.17.24.15.24.14.52.24.26.1.27.09.28.08.29.06.28.05.3.04.29.02.31.01.3-.01.3-.02.58-.08.56-.14.28-.09.27-.1.26-.11.26-.12.25-.14.24-.14.46-.32.22-.18.4-.38.19-.21.18-.21.17-.23.16-.23.15-.24.13-.24.13-.26.11-.26.1-.26.16-.56.05-.28.05-.29.03-.3.01-.3 1.12.08.81.06.26.02.26.01.5.04.24.01.23.02.23.01.22.02.22.01.4.02.36.02.17.01.16.01.15.01.13.01h.13l.11.01h.1l.08.01h.21l-.05.6-.07.59-.1.57-.13.57-.15.56-.18.55-.21.53-.23.52-.26.51-.28.5-.3.48-.32.46-.34.45-.36.44-.39.41-.4.4-.42.38-.43.36-.45.34-.47.31-.48.3-.5.28-.51.25-.52.23-.54.2-.54.18-.56.15-.56.13-.58.1-.58.07-.59.05-.59.01-.62-.02-.61-.04-.6-.08-.59-.1-.58-.14-.57-.16-.56-.19-.55-.22-.53-.24-.52-.26-.5-.3-.49-.31-.47-.34-.45-.35-.44-.38-.42-.4-.39-.42-.38-.44-.36-.46-.33-.47-.32-.49-.29-.51-.26-.52-.24-.54-.22-.55-.19-.56-.16-.57-.14-.59-.1-.6-.08-.6-.04-.62-.02-.62V79.65l.02-.62.04-.62.08-.6.1-.6.14-.59.16-.57.19-.56.22-.55.24-.54.26-.52.29-.51.32-.49.33-.47.36-.46.38-.44.39-.42.42-.4.44-.37.45-.36.47-.34.49-.31.5-.29.52-.27.53-.24.55-.22.56-.19.57-.16.58-.13.59-.11.6-.08.61-.04.62-.02.61.02.61.04zm-90.85-1.13.73.1.7.14.7.18.67.22.67.25.64.28.62.32.61.35.58.38.57.42.54.44.51.46.49.5.46.52.44.54.41.57.38.58.34.61.32.63.28.65.25.66.21.68.18.7.14.71.1.72.06.73.02.75v9.24l-.01.28-.02.27-.04.26-.05.27-.06.25-.08.25-.09.24-.11.24-.11.23-.13.22-.14.21-.15.2-.16.2-.17.19-.17.17-.19.17-.2.16-.21.15-.21.13-.22.13-.23.11-.23.1-.24.09-.25.08-.25.06-.26.05-.52.06H965.56v4.37l.02.2.03.2.04.2.1.38.07.18.08.18.18.34.11.16.11.15.12.15.13.14.14.14.14.13.15.12.15.11.16.11.34.18.18.08.19.07.18.05.19.05.2.04.2.03.2.02H978.34l.31 8.09-8.62 1.31-.86.11-.83.06-.81-.01-.79-.05-.77-.11-.74-.16-.73-.21-.7-.26-.67-.3-.65-.34-.62-.38-.6-.42-.57-.46-.53-.49-.51-.52-.48-.55-.45-.58-.42-.6-.39-.63-.35-.65-.32-.67-.28-.69-.25-.7-.21-.71-.18-.73-.13-.73-.1-.74-.06-.75-.02-.75V79.58l.02-.75.06-.73.1-.72.14-.71.18-.7.21-.68.25-.66.28-.65.32-.63.35-.61.37-.58.41-.57.44-.54.47-.52.49-.5.52-.46.54-.44.56-.42.59-.38.61-.35.63-.32.65-.28.66-.25.69-.22.69-.18.72-.14.73-.1.74-.06.75-.02.74.02.73.06zm147.56 1.15.68.1.67.14.66.18.64.21.62.25.61.28.59.32.57.34.55.38.52.4.51.43.47.46.46.49.42.51.4.53.37.56.35.57.3.6.28.61.25.63.21.65.17.67.14.67.1.69.06.71.02.71v9.47l-.02.38-.03.18-.03.17-.1.34-.06.16-.08.16-.16.3-.1.14-.1.13-.11.13-.12.12-.12.11-.13.11-.13.1-.14.09-.15.09-.15.07-.16.07-.16.06-.16.05-.17.05-.17.03-.17.02-.18.02H1110.88v6.55l.01.35.03.35.05.34.07.34.08.32.1.32.12.32.14.3.15.29.17.29.18.27.19.27.21.25.23.24.23.22.25.22.26.2.27.18.28.17.29.16.3.14.31.12.32.1.32.09.33.07.34.05.35.03.35.01h7.78l.02.42.01.2v.2l.01.2.01.19.01.18.01.19.02.36.04.68.05.8.01.15.02.15.01.16.01.15.02.15.01.15.02.15.01.14.02.15-7.39 1.16-.8.11-.79.05h-.76l-.74-.06-.72-.11-.7-.16-.68-.2-.65-.25-.63-.3-.6-.33-.58-.38-.56-.41-.52-.45-.5-.48-.47-.51-.43-.54-.41-.56-.38-.59-.34-.61-.32-.63-.27-.65-.25-.67-.21-.68-.17-.69-.13-.7-.1-.71-.06-.71-.02-.72v-19.1l.02-.71.06-.71.1-.69.14-.67.17-.67.21-.65.25-.63.28-.61.31-.6.34-.57.37-.56.4-.53.43-.51.45-.49.48-.46.51-.43.53-.4.55-.38.57-.34.59-.32.62-.28.63-.25.64-.21.66-.18.68-.14.69-.1.7-.06.71-.02.71.02.69.06zm-86.37-.02.78.1.75.15.73.19.7.22.68.27.66.31.63.34.6.37.58.41.55.44.52.47.5.49.46.53.43.54.41.57.37.59.34.62.3.62.28.65.23.66.21.67.17.69.13.7.09.7.06.71.02.72v18.33l-.02.7-.06.7-.1.68-.13.67-.18.66-.2.64-.24.63-.28.61-.3.59-.34.58-.37.55-.39.53-.43.5-.45.49-.47.45-.5.44-.52.4-.55.37-.56.35-.59.31-.6.28-.62.25-.64.21-.65.18-.67.14-.68.1-.69.06-.71.02-.7-.02-.7-.06-.68-.1-.67-.14-.66-.18-.65-.21-.62-.25-.61-.28-.59-.31-.58-.35-.55-.37-.53-.4-.51-.44-.48-.45-.46-.49-.43-.5-.4-.53-.37-.55-.35-.58-.31-.59-.28-.61-.25-.63-.21-.64-.18-.66-.14-.67-.1-.68-.06-.7-.02-.7V94.9l.02-.7.05-.69.08-.68.12-.66.15-.64.19-.63.22-.61.25-.59.28-.57.31-.55.34-.53.37-.5.4-.49.43-.46.46-.43.49-.4.52-.38.54-.36.57-.32.6-.29.63-.26.65-.23.67-.2.7-.16.73-.13.75-.09.77-.06.8-.02h.3l.29.01h.28l.27.01.52.02.48.04.23.01.22.02.22.03.21.02.21.03.2.03.19.02.2.04.18.03.19.03.36.08.17.04.18.04.17.04.17.05.18.04.17.05.17.04.17.05v-5.22l-.02-.36-.04-.36-.04-.34-.06-.34-.07-.34-.09-.32-.1-.31-.12-.3-.13-.29-.15-.28-.16-.26-.18-.25-.2-.24-.21-.22-.23-.21-.25-.19-.26-.17-.28-.15-.3-.14-.33-.11-.33-.1-.36-.08-.38-.05-.4-.04-.42-.01-.44.02-.46.04h.08-.27l-.27.01-.27.02-.28.01-.29.02-.29.01-.58.04-1.2.08-.31.02-.3.03-.31.02-.3.02-.31.02-.3.03-.31.02-.3.02-.3.03-.9.06-.87.06-.28.01-.01-.23-.01-.22v-.22l-.02-.4-.02-.38-.01-.17v-.17l-.01-.17-.02-.32-.01-.15-.01-.16v-.15l-.01-.14-.03-.45v-.14l-.01-.15-.01-.16-.01-.15-.02-.32v-.17l-.01-.17-.01-.18.23-.08.23-.09.48-.16.25-.08.52-.16.27-.08.26-.07.28-.07.27-.08.28-.07.28-.06.29-.07.28-.06.58-.12.58-.1.28-.05.58-.08.29-.03.28-.04.84-.06.27-.01.82.01.79.05zm116.02-.1.33.03.32.03.31.04.29.04.3.05.28.06.54.12.26.08.26.07.25.08.5.18.24.09.72.3.72.33-.01.26-.04.96-.03.69-.02.44-.02.22-.03.63-.01.2-.01.21-.02.4-.01.19-.01.2-.02.38-6.7-.15-.44.02-.43.06-.42.1-.4.14-.4.17-.38.2-.37.24-.35.26-.34.29-.31.31-.3.33-.28.36-.26.37-.23.38-.21.4-.19.41-.16.42-.14.43-.1.43-.08.43-.05.44-.02.43v30.04h-6.16V80.27l.03-.91.1-.9.16-.89.22-.87.27-.86.33-.83.39-.81.45-.77.49-.75.55-.7.59-.67.65-.63.69-.58.73-.53.78-.48.82-.43.86-.36.89-.3.94-.24.96-.16 1.01-.1 1.03-.02.35.02.34.02zm-70.63 42.79V50.16h6.17v60.15h-6.17zm26.19 0h-6.78l-11.7-20.41-.15-.27-.14-.24-.12-.22-.11-.21-.09-.2-.08-.19-.06-.17-.08-.34-.01-.16v-.17l.01-.17.04-.17.04-.18.07-.18.08-.2.09-.21.12-.23.13-.25.14-.26.17-.29.18-.31 10.32-17.1h7.01l-11.63 19.71 12.55 22.42zm-174.07 0h-9.55V67.02l9.55.54v42.75zm-15.64 0h-9.55V49.62l9.55.61v60.08zm83.02-42.02.13-.04.14-.03.28-.08.14-.03.15-.03.15-.04.16-.03.15-.03.16-.02.32-.06.16-.02.16-.03.17-.02.16-.02.17-.03.16-.02.17-.02.17-.01.34-.04.16-.01.17-.02.17-.01.16-.01.17-.01.8-.05h.16l.15-.01h.3l.15-.01h.28l.49.01.48.04.48.05.47.07.46.1.45.11.45.14.44.15.43.17.43.19.41.21.41.22.39.24.39.26.38.27.36.29.36.3.34.31.33.33.32.34.31.36.29.36.28.38.27.39.26.4.24.41.22.42.21.43.2.44.18.44.17.46.15.46.13.46.12.48.1.48.08.48.07.49.04.49.03.5.01.5v30.12h-6.01V79.95l-.02-.25-.02-.24-.04-.24-.04-.23-.05-.23-.06-.23-.07-.23-.08-.22-.09-.21-.2-.42-.11-.2-.12-.2-.26-.38-.14-.18-.3-.34-.16-.16-.17-.16-.17-.15-.18-.15-.18-.13-.38-.26-.2-.11-.21-.11-.42-.2-.44-.16-.22-.07-.23-.06-.24-.05-.23-.04-.48-.06-.5-.02h-5.85v36.05h-6.16V50h6.16v18.33l.13-.04zm-47.76-19.28.21.01.22.01.21.02.6.06.2.03.19.03.18.03.18.04.18.03.17.04.48.12.15.04.14.04.39.12.22.08.11.05.09.03.09.04.08.04.07.04.07.03.1.06-.39 9.17H948.34l-.17.01-.18.03-.17.03-.17.04-.17.05-.32.12-.16.07-.15.08-.15.09-.14.09-.14.1-.14.11-.13.12-.24.24-.11.13-.11.14-.1.14-.18.3-.07.16-.08.16-.06.16-.06.17-.05.17-.04.18-.03.17-.02.19-.01.18-.01.19v12.94h7.16v9.55h-7.16v24.99h-9.55V62.79l.02-.68.05-.67.08-.67.12-.65.15-.65.18-.64.21-.63.24-.62.27-.61.29-.59.32-.58.34-.56.37-.54.4-.53.41-.5.44-.49.46-.47.48-.44.49-.42.52-.4.53-.37.55-.34.56-.32.58-.28.59-.26.6-.23.62-.19.63-.16.63-.13.65-.09.65-.06.66-.02h.23l.22.01zm81.04 39.36-1.01.28-.93.43-.82.58-.72.71-.58.83-.43.93-.27 1-.1 1.08v4.47l.1 1.08.27 1.01.43.94.58.83.72.73.82.59.93.45 1.01.28 1.07.09 1.08-.09 1.01-.28.92-.45.83-.59.71-.73.58-.83.44-.94.27-1.01.09-1.08v-10.4h-5.93l-1.07.09zm84.48-14.17-1.01.55-.87.73-.73.89-.54 1.02-.34 1.13-.12 1.21v6.47h11.86v-6.47l-.12-1.21-.35-1.13-.55-1.02-.73-.89-.88-.73-1.01-.55-1.1-.35-1.19-.13-1.2.13-1.12.35zm-147.45 2.45-.78.79-.52.99-.18 1.15v4.46h7.16v-4.46l-.18-1.15-.51-.99-.77-.79-.97-.51-1.11-.18-1.15.18-.99.51zM927.32 54.6l1.11.86.86 1.11.55 1.3.2 1.45-.2 1.45-.55 1.3-.86 1.11-1.11.86-1.3.55-1.45.2-1.45-.2-1.3-.55-1.11-.86-.86-1.11-.55-1.3-.2-1.45.2-1.45.55-1.3.86-1.11 1.11-.86 1.3-.55 1.45-.2 1.45.2 1.3.55z"/><path id="i" d="m218.37 170.11 1.3.13 1.28.19 1.27.24 1.25.29 1.23.34 1.2.38 1.19.44 1.16.47 1.14.53 1.12.56 1.09.61 1.06.65 1.03.69 1 .73.98.77.94.81.91.84.87.87.84.91.81.94.77.98.72 1 .7 1.03.65 1.06.6 1.09.57 1.12.52 1.14.48 1.16.43 1.18.39 1.21.34 1.23.29 1.25.24 1.27.18 1.28.14 1.3.08 1.31.03 1.33-.03 1.33-.08 1.32-.14 1.3-.18 1.28-.24 1.27-.29 1.24-.34 1.23-.39 1.21-.43 1.19-.48 1.16-.52 1.14-.57 1.11-.6 1.09-.65 1.06-.7 1.04-.72 1-.77.97-.81.95-.84.9-.87.88-.91.84-.94.8-.98.77-1 .73-1.03.69-1.06.65-1.09.61-1.12.57-1.14.52-1.16.48-1.19.43-1.2.39-1.23.34-1.25.28-1.27.24-1.28.19-1.3.14-1.32.08-1.32.03-1.33-.03-1.32-.08-1.3-.14-1.28-.19-1.27-.24-1.25-.28-1.22-.34-1.21-.39-1.19-.43-1.16-.48-1.14-.52-1.12-.57-1.08-.61-1.07-.65-1.03-.69-1-.73-.98-.77-.94-.8-.91-.84-.87-.88-.84-.9-.81-.95-.76-.97-.73-1-.69-1.04-.65-1.06-.61-1.09-.57-1.11-.52-1.14-.48-1.16-.43-1.19-.39-1.21-.34-1.23-.29-1.24-.23-1.27-.19-1.28-.14-1.3-.08-1.32-.03-1.33.03-1.33.08-1.31.14-1.3.19-1.28.23-1.27.29-1.25.34-1.23.39-1.21.43-1.18.48-1.16.52-1.14.57-1.12.61-1.09.65-1.06.69-1.03.73-1 .76-.98.81-.94.84-.91.87-.87.91-.84.94-.81.98-.77 1-.73 1.03-.69 1.07-.65 1.08-.61 1.12-.56 1.14-.53 1.16-.47 1.19-.44 1.21-.38 1.22-.34 1.25-.29 1.27-.24 1.28-.19 1.3-.13 1.32-.08 1.33-.03 1.32.03 1.32.08zm92.05 13.06.5.02.96.08.94.12.45.07.45.08.43.09.43.1.42.1.41.12.4.12.39.13.39.14.37.14.37.16.36.16.35.16.34.18.66.36.32.2.3.19.3.21.58.42.27.22.27.23.26.23-4.49 6.68-.14-.15-.3-.32-.16-.15-.34-.3-.54-.42-.2-.14-.4-.26-.21-.12-.22-.12-.44-.22-.23-.1-.24-.1-.48-.18-.25-.08-.52-.14-.26-.06-.54-.1-.28-.04-.28-.03-.29-.02-.29-.01h-.55l-.24.01-.23.02-.22.02-.21.03-.2.03-.2.04-.36.1-.17.06-.15.06-.3.14-.13.08-.24.16-.11.09-.1.09-.18.2-.07.1-.07.11-.12.22-.04.11-.04.12-.06.24-.02.12-.01.13v.13l.01.2.02.2.04.19.06.18.06.17.09.16.09.15.11.15.13.14.13.13.15.13.15.12.17.12.36.22.4.2.22.1.22.09.46.18.24.09.5.18.26.08.52.18.81.27.28.09.54.17.54.18.53.19.52.19.51.2.5.21.48.22.47.22.46.24.45.25.43.26.41.27.4.29.39.29.37.32.35.32.33.34.31.36.29.37.28.39.25.41.23.42.21.45.19.46.17.48.14.51.11.52.1.55.06.56.04.59.02.62-.02.64-.04.63-.08.62-.1.6-.14.6-.16.58-.19.56-.22.55-.25.54-.28.52-.3.5-.34.48-.36.47-.39.44-.42.43-.45.4-.47.39-.5.36-.52.34-.56.32-.58.29-.6.27-.64.24-.65.22-.69.19-.71.16-.73.14-.77.1-.78.08-.81.04-.84.02h-.62l-.61-.01-.6-.04-.59-.04-.58-.07-.57-.07-.56-.1-.55-.1-.53-.12-.52-.13-.52-.14-.5-.15-.48-.16-.48-.17-.46-.18-.45-.19-.43-.2-.42-.2-.41-.21-.39-.21-.38-.22-.36-.23-.35-.22-.33-.23-.32-.24-.3-.23-.29-.24-.27-.23-.26-.24-.23-.24-.22-.23 4.82-6.68.17.21.18.21.19.2.2.21.2.2.22.19.21.19.23.19.23.18.24.18.25.18.25.17.25.16.27.15.26.15.28.15.27.13.29.13.28.12.3.12.29.1.3.1.31.09.3.07.32.07.31.06.32.05.32.04.32.03.33.02H307.89l.25-.01.24-.02.23-.02.22-.03.21-.04.21-.05.4-.1.36-.14.17-.08.16-.08.16-.09.28-.2.13-.11.12-.12.11-.12.11-.13.09-.13.09-.15.08-.14.07-.16.06-.16.05-.17.04-.17.03-.18.03-.19.01-.19.01-.2-.01-.22-.02-.22-.03-.21-.05-.2-.06-.19-.08-.19-.08-.17-.1-.17-.11-.16-.13-.15-.14-.15-.15-.14-.16-.14-.17-.13-.19-.12-.2-.13-.21-.11-.22-.12-.48-.22-.26-.11-.27-.1-.28-.1-.29-.1-.3-.11-.31-.1-.66-.2-.7-.2-.37-.11-.48-.15-.49-.16-.94-.34-.47-.19-.45-.19-.45-.2-.44-.21-.43-.23-.42-.23-.41-.25-.4-.26-.38-.27-.37-.28-.35-.3-.34-.31-.32-.32-.31-.34-.29-.35-.27-.37-.25-.39-.23-.4-.21-.42-.19-.44-.16-.45-.15-.48-.11-.49-.1-.51-.06-.53-.05-.56-.01-.57.02-.63.05-.61.08-.61.12-.58.14-.58.18-.55.21-.54.24-.53.26-.51.3-.49.32-.47.35-.46.38-.43.4-.42.43-.39.45-.38.47-.36.5-.33.52-.31.54-.29.56-.27.58-.25.6-.22.62-.19.64-.18.66-.14.67-.12.69-.1.71-.07.72-.04.74-.01h.51l.51.02zm-39.37 20.47.01.34v.34l.02.33.01.33.03.33.02.32.04.32.04.31.05.31.06.3.07.3.08.28.09.28.1.28.11.26.12.25.14.25.15.23.16.22.18.21.2.2.21.19.23.17.25.16.26.14.29.13.3.12.32.09.35.09.36.06.39.05.41.03h.86l.41-.03.39-.05.36-.06.35-.09.32-.09.3-.12.29-.13.26-.14.25-.16.23-.17.21-.19.2-.2.18-.21.16-.22.15-.23.14-.25.12-.25.11-.26.1-.28.09-.28.08-.28.07-.3.06-.3.05-.31.04-.31.04-.32.02-.32.03-.33.02-.66.02-.68V183.91h9.97v22.24l-.02.76-.04.73-.07.71-.1.69-.12.67-.16.65-.18.63-.21.61-.24.58-.26.57-.29.54-.32.52-.34.5-.37.48-.4.45-.42.43-.45.41-.47.39-.5.36-.53.35-.55.32-.58.29-.6.28-.62.25-.66.22-.67.21-.7.18-.73.15-.75.14-.77.11-.8.08-.82.06-.84.04-.87.01h-.89l-.86-.03-.83-.06-.81-.07-.78-.11-.76-.13-.73-.15-.71-.18-.68-.2-.65-.22-.63-.25-.6-.27-.58-.3-.55-.32-.52-.34-.49-.37-.47-.38-.45-.41-.42-.43-.39-.46-.36-.48-.34-.49-.31-.52-.28-.54-.26-.57-.23-.58-.2-.6-.18-.63-.15-.64-.12-.67-.1-.68-.06-.71-.04-.72-.02-.75v-22.35h9.97V203.64zm144.25-20.17 1.5.25 1.43.35 1.35.44 1.28.52 1.2.6 1.12.67 1.05.74.98.8.9.86.82.9.75.96.68.99.61 1.03.53 1.06.46 1.08.39 1.1.31 1.12.25 1.13.17 1.13.11 1.12.03 1.12-.03 1.12-.11 1.13-.17 1.12-.25 1.13-.31 1.11-.39 1.1-.46 1.07-.53 1.06-.61 1.02-.68.98-.75.95-.82.9-.9.85-.98.79-1.05.73-1.12.67-1.2.59-1.28.52-1.35.43-1.43.35-1.5.25-1.59.16-1.66.05-1.66-.04-1.58-.14-1.51-.25-1.43-.33-1.35-.43-1.28-.51-1.2-.58-1.12-.66-1.05-.73-.97-.79-.9-.85-.83-.9-.75-.95-.68-.98-.6-1.03-.53-1.06-.46-1.08-.39-1.11-.32-1.12-.25-1.13-.17-1.14-.11-1.13-.03-1.14.03-1.13.11-1.14.17-1.14.25-1.13.32-1.12.39-1.1.46-1.09.53-1.06.6-1.03.68-.99.75-.95.83-.9.9-.85.97-.8 1.05-.73 1.12-.67 1.2-.59 1.28-.52 1.35-.43 1.43-.35 1.51-.25 1.58-.16 1.66-.05 1.66.05 1.59.16zm95.02 9.41.11.21.12.21.11.23.12.22.11.23.12.23.48.96.11.25.12.24.22.5.11.24.1.25.2.48.18.48.08.23.14.46.06.22.06.21.04.21.04.2h.22l.04-.2.1-.42.06-.22.14-.46.08-.23.08-.24.27-.72.1-.25.11-.24.1-.25.11-.25.12-.24.11-.25.48-.96.24-.46.12-.22.12-.23.24-.42.12-.2 4.71-8.66h10.63l-13.04 22.46v12.49H507.7v-12.49h-.11l-13.04-22.46h10.95l4.72 8.66.1.2zm-59.57-8.83 1.41.17 1.34.23 1.29.3 1.23.36 1.17.43 1.11.48 1.04.55.99.61.92.67.86.72.79.78.73.84.66.89.59.95.53 1 .46 1.05.39 1.11.32 1.15.25 1.2.18 1.26.11 1.3.04 1.34-.04 1.32-.11 1.28-.19 1.24-.25 1.19-.33 1.14-.4 1.1-.47 1.05-.54 1-.6.95-.67.89-.74.85-.8.78-.86.74-.93.67-.98.62-1.05.55-1.11.5-1.16.43-1.22.37-1.28.31-1.34.24-1.39.17-1.44.11-1.49.03h-12.93v-35.06h12.93l1.52.04 1.46.1zm-67.18 7.97v26.84h-9.97v-26.84h-8.66v-8.11h27.28v8.11h-8.65zm-34.84 26.84-1.65-5.04h-13.14l-1.65 5.04h-10.18l.07-.16.18-.47.29-.76.39-1.01.46-1.23.54-1.44.61-1.61.65-1.76.71-1.88.73-1.98.76-2.04.78-2.08.77-2.1.78-2.08.76-2.04.73-1.98.7-1.88.65-1.76.59-1.61.54-1.44.46-1.24.37-1.01.28-.75.17-.47.06-.17h10.96l13.04 34.95h-10.41zm143.63 0-1.65-5.04h-13.14l-1.65 5.04h-10.19l.08-.16.18-.47.29-.76.39-1.01.46-1.23.54-1.44.61-1.61.65-1.76.71-1.88.73-1.98.76-2.04.78-2.08.77-2.1.78-2.08.75-2.04.74-1.98.69-1.88.66-1.76.59-1.61.54-1.44.45-1.24.38-1.01.28-.75.17-.47.06-.17h10.96l13.04 34.95h-10.41zm-47.44-8h2.19l1.85-.09 1.66-.28 1.47-.46 1.28-.65 1.09-.84.9-1.04.7-1.22.51-1.42.3-1.61.1-1.81-.1-1.81-.3-1.61-.51-1.41-.7-1.23-.9-1.03-1.09-.84-1.28-.65-1.47-.47-1.66-.28-1.85-.09h-2.19v18.84zm-35.4-18.62-1.17.4-1.09.56-1 .72-.88.87-.75 1.03-.61 1.18-.46 1.33-.28 1.48-.1 1.63.1 1.63.28 1.47.46 1.33.61 1.16.75 1.02.88.86 1 .7 1.09.55 1.17.39 1.24.24 1.29.07 1.3-.07 1.24-.24 1.19-.39 1.1-.55 1.01-.7.89-.86.77-1.02.63-1.16.46-1.33.29-1.47.11-1.63-.1-1.63-.29-1.48-.45-1.33-.62-1.18-.76-1.03-.89-.87-1-.72-1.1-.56-1.2-.4-1.26-.25-1.32-.08-1.29.08-1.24.25zm-69.34.69-.13.74-.15.77-.18.78-.19.79-.22.76-.22.73-2.74 8.43h8.21l-2.73-8.43-.23-.73-.21-.76-.2-.79-.18-.78-.15-.77-.13-.74-.11-.69h-.33l-.11.69zm143.63 0-.13.74-.15.77-.18.78-.19.79-.22.76-.22.73-2.74 8.43h8.21l-2.73-8.43-.23-.73-.22-.76-.19-.79-.18-.78-.15-.77-.13-.74-.11-.69h-.33l-.11.69z"/></defs><use xlink:href="#a"/><use xlink:href="#a" fill-opacity="0" stroke="#000" stroke-opacity="0"/><use xlink:href="#b"/><use xlink:href="#b" fill-opacity="0" stroke="#000" stroke-opacity="0"/><use xlink:href="#c"/><use xlink:href="#c" fill-opacity="0" stroke="#000" stroke-opacity="0"/><use xlink:href="#d"/><use xlink:href="#d" fill-opacity="0" stroke="#000" stroke-opacity="0"/><use xlink:href="#e"/><use xlink:href="#e" fill-opacity="0" stroke="#000" stroke-opacity="0"/><use xlink:href="#f"/><use xlink:href="#f" fill-opacity="0" stroke="#000" stroke-opacity="0"/><use xlink:href="#g"/><use xlink:href="#g" fill-opacity="0" stroke="#000" stroke-opacity="0"/><use xlink:href="#h"/><use xlink:href="#h" fill-opacity="0" stroke="#000" stroke-opacity="0"/><use xlink:href="#i"/><use xlink:href="#i" fill-opacity="0" stroke="#000" stroke-opacity="0"/></svg>