<svg xmlns="http://www.w3.org/2000/svg" fill="var(--quaternary-color)" viewBox="1635 200 1185 600"><path d="M2143.153 531.761c0 56.236-43.994 97.676-97.984 97.676-53.991 0-97.985-41.44-97.985-97.676 0-56.633 43.994-97.676 97.985-97.676 53.99 0 97.984 41.043 97.984 97.676Zm-42.893 0c0-35.142-25.498-59.187-55.091-59.187-29.594 0-55.092 24.045-55.092 59.187 0 34.79 25.498 59.187 55.092 59.187 29.593 0 55.091-24.441 55.091-59.187ZM2354.534 531.761c0 56.236-43.993 97.676-97.984 97.676-53.99 0-97.984-41.44-97.984-97.676 0-56.589 43.994-97.676 97.984-97.676 53.991 0 97.984 41.043 97.984 97.676Zm-42.892 0c0-35.142-25.498-59.187-55.092-59.187-29.593 0-55.091 24.045-55.091 59.187 0 34.79 25.498 59.187 55.091 59.187 29.594 0 55.092-24.441 55.092-59.187ZM2557.109 439.986v175.359c0 72.134-42.541 101.595-92.832 101.595-47.341 0-75.833-31.663-86.579-57.557l37.345-15.546c6.649 15.898 22.943 34.658 49.19 34.658 32.191 0 52.141-19.861 52.141-57.249v-14.048h-1.498c-9.6 11.846-28.096 22.195-51.436 22.195-48.838 0-93.58-42.541-93.58-97.28 0-55.135 44.742-98.028 93.58-98.028 23.296 0 41.792 10.349 51.436 21.843h1.498V440.03h40.735v-.044Zm-37.697 92.127c0-34.393-22.944-59.539-52.141-59.539-29.593 0-54.386 25.146-54.386 59.539 0 34.041 24.793 58.835 54.386 58.835 29.197 0 52.141-24.794 52.141-58.835ZM2624.266 337.202v286.246h-41.836V337.202h41.836ZM2787.294 563.908l33.293 22.196c-10.745 15.897-36.639 43.289-81.382 43.289-55.488 0-96.927-42.893-96.927-97.676 0-58.086 41.792-97.676 92.127-97.676 50.688 0 75.481 40.338 83.584 62.137l4.448 11.098-130.573 54.078c9.997 19.597 25.542 29.594 47.341 29.594 21.843 0 36.992-10.746 48.089-27.04Zm-102.476-35.142 87.283-36.243c-4.8-12.198-19.244-20.698-36.243-20.698-21.798 0-52.141 19.245-51.04 56.941ZM1788.824 506.351v-41.44h139.644c1.365 7.223 2.07 15.766 2.07 25.014 0 31.091-8.499 69.536-35.891 96.927-26.643 27.744-60.684 42.541-105.779 42.541-83.584 0-153.868-68.083-153.868-151.667 0-83.583 70.284-151.666 153.868-151.666 46.24 0 79.18 18.144 103.93 41.792l-29.242 29.241c-17.747-16.646-41.791-29.593-74.732-29.593-61.036 0-108.773 49.19-108.773 110.226 0 61.037 47.737 110.227 108.773 110.227 39.59 0 62.138-15.898 76.582-30.342 11.714-11.714 19.421-28.448 22.459-51.304l-99.041.044Z"/></svg>