<svg xmlns="http://www.w3.org/2000/svg" fill="var(--quaternary-color)" viewBox="939.813 1185 1400 472"><path d="m1430.669 1446.063-8.289 23.484h-.69c-1.382-5.296-3.914-13.354-8.059-23.024l-44.435-111.663h-43.513v177.97h28.779v-109.821c0-6.907 0-14.735-.231-24.404-.23-4.835-.69-8.519-.921-11.282h.691c1.382 6.907 2.993 11.972 4.144 15.196l53.414 129.851h20.261l52.953-131.003c1.151-2.993 2.303-8.979 3.454-14.044h.69a1663.944 1663.944 0 0 0-1.381 32.003v112.814h30.621V1334.4h-41.902l-45.586 111.663Zm116.497-61.472h29.93v127.549h-29.93v-127.549Zm15.196-53.875c-5.065 0-9.21 1.842-12.663 5.065-3.454 3.224-5.296 7.368-5.296 12.433 0 4.835 1.842 8.979 5.296 12.202 3.453 3.224 7.598 4.835 12.663 4.835s9.439-1.842 12.662-4.835c3.454-3.223 5.296-7.367 5.296-12.202s-1.842-8.979-5.296-12.433c-2.993-3.223-7.367-5.065-12.662-5.065Zm120.872 52.724c-5.526-1.152-11.282-1.842-16.807-1.842-13.584 0-26.017 2.993-36.377 8.979-10.361 5.986-18.649 14.274-23.944 24.635-5.526 10.59-8.289 22.793-8.289 36.837 0 12.202 2.763 23.023 8.059 32.923 5.295 9.67 12.662 17.498 22.562 22.793 9.44 5.295 20.491 8.058 32.924 8.058 14.274 0 26.476-2.993 36.146-8.518l.23-.231v-27.627l-1.151.92c-4.374 3.224-9.439 5.986-14.504 7.598-5.296 1.842-10.131 2.763-14.275 2.763-11.972 0-21.412-3.454-28.088-11.051-6.907-7.368-10.361-17.498-10.361-30.161 0-13.123 3.454-23.483 10.591-31.081 7.137-7.598 16.577-11.512 28.088-11.512 9.67 0 19.57 3.224 28.549 9.67l1.151.921v-29.24l-.23-.23c-3.914-1.611-8.288-3.453-14.274-4.604m98.769-.921c-7.367 0-14.274 2.302-20.26 7.137-5.065 4.144-8.519 10.13-11.512 17.267h-.23v-22.332h-29.93v127.549h29.93v-65.156c0-11.051 2.302-20.261 7.368-26.937 5.065-6.907 11.511-10.361 19.339-10.361 2.763 0 5.526.691 8.979 1.151 3.223.921 5.526 1.842 7.137 2.993l1.152.921v-29.93l-.691-.23c-2.072-1.382-6.216-2.072-11.282-2.072m81.503-.691c-20.951 0-37.758 6.216-49.5 18.419-11.972 12.202-17.728 29.009-17.728 50.19 0 19.8 5.986 35.916 17.498 47.658 11.511 11.512 27.167 17.498 46.737 17.498 20.49 0 36.837-6.216 48.579-18.649 11.972-12.432 17.728-29.009 17.728-49.5 0-20.26-5.526-36.377-16.807-48.118-10.821-11.742-26.707-17.498-46.507-17.498m23.944 98.079c-5.526 7.137-14.274 10.591-25.095 10.591s-19.57-3.454-25.786-11.051c-6.217-7.138-9.21-17.498-9.21-30.621 0-13.584 3.224-23.945 9.21-31.312 6.216-7.367 14.734-11.051 25.555-11.051 10.591 0 18.879 3.453 24.865 10.59 5.987 7.138 9.21 17.498 9.21 31.082-.461 13.814-2.993 24.635-8.749 31.772m106.137-42.363c-9.439-3.914-15.425-6.907-18.188-9.439-2.303-2.303-3.454-5.526-3.454-9.67 0-3.454 1.382-6.907 4.835-9.209 3.454-2.303 7.368-3.454 13.123-3.454 5.066 0 10.361.921 15.426 2.302 5.065 1.382 9.67 3.454 13.354 6.217l1.151.921v-28.089l-.691-.23c-3.454-1.381-8.058-2.763-13.584-3.914-5.525-.921-10.59-1.381-14.735-1.381-14.274 0-26.016 3.453-35.225 11.051-9.209 7.137-13.584 16.807-13.584 28.088 0 5.986.921 11.282 2.993 15.656 2.072 4.374 5.065 8.519 9.209 11.972 4.145 3.223 10.131 6.907 18.419 10.361 6.907 2.993 12.202 5.295 15.426 7.137 3.223 1.842 5.295 3.914 6.907 5.525 1.151 1.842 1.841 4.145 1.841 7.138 0 8.518-6.446 12.662-19.569 12.662-5.065 0-10.361-.921-16.577-2.993-6.216-2.072-11.972-5.065-16.807-8.518l-1.151-.921v29.239l.69.231c4.375 2.072 9.67 3.453 16.117 5.065 6.446 1.151 12.202 2.072 17.267 2.072 15.426 0 28.089-3.454 37.068-11.051 9.209-7.368 14.044-16.807 14.044-29.01 0-8.518-2.302-16.116-7.368-21.872-6.676-5.525-14.965-11.281-26.937-15.886m113.275-55.716c-20.952 0-37.759 6.216-49.5 18.419-11.742 12.202-17.728 29.009-17.728 50.19 0 19.8 5.986 35.916 17.497 47.658 11.512 11.512 27.168 17.498 46.738 17.498 20.49 0 36.837-6.216 48.579-18.649 11.972-12.432 17.728-29.009 17.728-49.5 0-20.26-5.526-36.377-16.807-48.118-10.821-11.742-26.707-17.498-46.507-17.498m23.714 98.079c-5.526 7.137-14.275 10.591-25.096 10.591-11.051 0-19.57-3.454-25.786-11.051-6.216-7.138-9.209-17.498-9.209-30.621 0-13.584 3.223-23.945 9.209-31.312 6.216-7.367 14.735-11.051 25.556-11.051 10.36 0 18.879 3.453 24.865 10.59 5.986 7.138 9.209 17.498 9.209 31.082 0 13.814-2.993 24.635-8.748 31.772m199.611-70.681v-24.635h-30.16v-37.758l-.921.23-28.549 8.518-.691.231v28.779h-45.125v-16.117c0-7.367 1.842-13.123 5.065-16.807 3.223-3.683 8.058-5.525 14.044-5.525 4.144 0 8.519.921 13.353 2.993l1.152.691v-26.017l-.691-.23c-4.144-1.381-9.67-2.302-16.807-2.302-8.979 0-16.807 2.072-23.944 5.525-7.138 3.914-12.433 9.21-16.347 16.347-3.914 6.907-5.986 14.735-5.986 23.714v17.728h-20.951v24.404h20.951v103.145h30.161v-102.914h45.125v65.616c0 26.937 12.663 40.521 37.989 40.521 4.144 0 8.518-.691 12.662-1.382 4.375-.921 7.598-2.072 9.44-2.993l.23-.23v-24.635l-1.151.921c-1.842 1.151-3.453 2.072-6.216 2.763-2.303.691-4.375.921-5.986.921-5.986 0-10.131-1.381-13.124-4.835-2.762-3.223-4.144-8.519-4.144-16.346v-60.321h30.621ZM939.813 1275h141.132v141.133H939.813V1275ZM1095.68 1275h141.133v141.133H1095.68V1275ZM939.813 1430.867h141.132V1572H939.813v-141.133ZM1095.68 1430.867h141.133V1572H1095.68v-141.133Z"/></svg>