<svg xmlns="http://www.w3.org/2000/svg" fill="var(--quaternary-color)" viewBox="3018 235.379 1525 572"><path d="M3254.79 285.379c-130.773 0-236.79 106.015-236.79 236.788 0 130.779 106.017 236.785 236.79 236.785 130.788 0 236.794-106.006 236.794-236.785 0-130.765-106.006-236.776-236.796-236.776l.002-.012Zm108.591 341.516c-4.241 6.956-13.346 9.161-20.302 4.892-55.596-33.96-125.584-41.651-208.008-22.819-7.943 1.81-15.86-3.167-17.67-11.112-1.818-7.946 3.139-15.863 11.101-17.673 90.2-20.607 167.571-11.734 229.987 26.41 6.956 4.27 9.162 13.346 4.892 20.302Zm28.983-64.475c-5.344 8.687-16.711 11.43-25.392 6.085-63.649-39.122-160.672-50.452-235.956-27.6-9.764 2.949-20.076-2.553-23.039-12.3-2.941-9.763 2.564-20.056 12.311-23.025 85.995-26.093 192.903-13.453 265.997 31.463 8.68 5.344 11.423 16.711 6.079 25.38v-.003Zm2.488-67.138c-76.316-45.329-202.229-49.497-275.093-27.382-11.7 3.549-24.074-3.057-27.62-14.757-3.546-11.706 3.054-24.072 14.763-27.629 83.643-25.391 222.689-20.485 310.554 31.675 10.547 6.246 13.996 19.838 7.747 30.348-6.22 10.525-19.849 13.994-30.34 7.745h-.011Zm267.377 8.687c-40.887-9.75-48.154-16.593-48.154-30.971 0-13.584 12.78-22.725 31.81-22.725 18.436 0 36.702 6.941 55.873 21.232a2.632 2.632 0 0 0 2.008.492 2.636 2.636 0 0 0 1.781-1.091l19.963-28.141a2.684 2.684 0 0 0-.509-3.641c-22.819-18.303-48.493-27.202-78.522-27.202-44.139 0-74.988 26.492-74.988 64.396 0 40.646 26.608 55.039 72.584 66.148 39.106 9.012 45.723 16.561 45.723 30.055 0 14.957-13.347 24.26-34.836 24.26-23.865 0-43.347-8.058-65.12-26.89-.537-.481-1.272-.679-1.951-.65a2.645 2.645 0 0 0-1.838.933l-22.394 26.636c-.933 1.131-.82 2.771.254 3.732 25.336 22.621 56.496 34.553 90.144 34.553 47.56 0 78.296-25.986 78.296-66.222.085-33.951-20.246-52.754-70.04-64.868l-.084-.036Zm177.742-40.322c-20.613 0-37.522 8.121-51.491 24.761v-18.73c0-1.478-1.187-2.683-2.658-2.683h-36.617c-1.47 0-2.658 1.205-2.658 2.683v208.114c0 1.47 1.188 2.686 2.658 2.686h36.617c1.471 0 2.658-1.216 2.658-2.686v-65.685c13.969 15.636 30.878 23.299 51.491 23.299 38.313 0 77.108-29.492 77.108-85.871.056-56.39-38.738-85.891-77.08-85.891l-.028.003Zm34.524 85.888c0 28.697-17.672 48.745-43.007 48.745-25.024 0-43.913-20.953-43.913-48.745 0-27.795 18.889-48.742 43.913-48.742 24.911-.003 43.007 20.492 43.007 48.739v.003Zm141.973-85.888c-49.341 0-87.994 37.992-87.994 86.502 0 47.989 38.399 85.568 87.401 85.568 49.511 0 88.277-37.861 88.277-86.182 0-48.157-38.512-85.882-87.684-85.882v-.006Zm0 134.916c-26.24 0-46.033-21.094-46.033-49.042 0-28.075 19.115-48.448 45.44-48.448 26.409 0 46.316 21.085 46.316 49.062 0 28.069-19.228 48.428-45.723 48.428Zm193.04-131.568h-40.293v-41.187c0-1.476-1.188-2.68-2.658-2.68h-36.618a2.694 2.694 0 0 0-2.686 2.68v41.187h-17.587c-1.471 0-2.658 1.205-2.658 2.683v31.463c0 1.476 1.187 2.683 2.658 2.683h17.587v81.421c0 32.885 16.372 49.567 48.691 49.567 13.12 0 24.007-2.714 34.271-8.539.848-.452 1.357-1.357 1.357-2.319v-29.972c0-.905-.481-1.781-1.273-2.262a2.596 2.596 0 0 0-2.601-.113c-7.041 3.534-13.855 5.174-21.49 5.174-11.734 0-16.993-5.344-16.993-17.276v-75.666h40.293c1.47 0 2.658-1.205 2.658-2.684v-31.46c.056-1.478-1.131-2.683-2.63-2.683l-.028-.017Zm140.361.161v-5.058c0-14.882 5.712-21.518 18.492-21.518 7.635 0 13.771 1.515 20.642 3.806.848.265 1.725.133 2.403-.374a2.66 2.66 0 0 0 1.103-2.177v-30.849c0-1.179-.735-2.222-1.894-2.57-7.239-2.157-16.514-4.371-30.425-4.371-33.79 0-51.689 19.04-51.689 55.044v7.748h-17.587a2.694 2.694 0 0 0-2.686 2.68v31.624a2.697 2.697 0 0 0 2.686 2.683h17.587v125.559a2.685 2.685 0 0 0 2.687 2.686h36.589a2.667 2.667 0 0 0 2.686-2.686v-125.55h34.185l52.367 125.55c-5.938 13.177-11.791 15.806-19.765 15.806-6.447 0-13.261-1.922-20.189-5.74a2.913 2.913 0 0 0-2.12-.197c-.707.254-1.301.763-1.584 1.442l-12.413 27.229a2.672 2.672 0 0 0 1.16 3.478c12.95 7.013 24.628 10.01 39.077 10.01 27.031 0 41.989-12.611 55.138-46.486l63.507-164.104a2.613 2.613 0 0 0-.283-2.491 2.609 2.609 0 0 0-2.177-1.165h-38.116a2.677 2.677 0 0 0-2.544 1.798l-39.049 111.503-42.753-111.576a2.67 2.67 0 0 0-2.489-1.725h-62.546v-.009Zm-81.378-.161h-36.617a2.696 2.696 0 0 0-2.686 2.683v159.705a2.685 2.685 0 0 0 2.686 2.686h36.617a2.685 2.685 0 0 0 2.686-2.686V469.69a2.677 2.677 0 0 0-2.686-2.684v-.011Zm-18.096-72.723c-14.506 0-26.269 11.741-26.269 26.243 0 14.511 11.763 26.266 26.269 26.266 14.505 0 26.24-11.755 26.24-26.266 0-14.5-11.763-26.243-26.24-26.243Zm320.704 124.075c-14.477 0-25.759-11.636-25.759-25.765 0-14.13 11.424-25.898 25.901-25.898S4597 478.317 4597 492.435c0 14.129-11.423 25.912-25.901 25.912Zm.142-49.101c-13.205 0-23.186 10.49-23.186 23.336 0 12.84 9.924 23.189 23.044 23.189 13.205 0 23.186-10.482 23.186-23.336 0-12.84-9.924-23.189-23.044-23.189Zm5.712 25.838 7.295 10.202h-6.165l-6.56-9.359h-5.626v9.359h-5.147v-27.043h12.046c6.305 0 10.434 3.215 10.434 8.627.028 4.434-2.545 7.143-6.249 8.214h-.028Zm-4.355-12.201h-6.701v8.554h6.701c3.336 0 5.344-1.637 5.344-4.281 0-2.783-2.008-4.273-5.344-4.273Z"/></svg>